<?xml version="1.0" encoding="UTF-8"?>
<svg id="Ebene_10" xmlns="http://www.w3.org/2000/svg" xmlns:xlink="http://www.w3.org/1999/xlink" viewBox="0 0 3279.03 864">
  <defs>
    <style>
      .cls-1 {
        fill: url(#Unbenannter_Verlauf_23-7);
      }

      .cls-2 {
        fill: url(#Unbenannter_Verlauf_23-3);
      }

      .cls-3 {
        fill: url(#Unbenannter_Verlauf_23-6);
      }

      .cls-4 {
        fill: url(#Unbenannter_Verlauf_23-5);
      }

      .cls-5 {
        fill: #1b1f3a;
      }

      .cls-6 {
        fill: url(#Unbenannter_Verlauf_23-9);
      }

      .cls-7 {
        fill: url(#Unbenannter_Verlauf_23-4);
      }

      .cls-8 {
        fill: url(#Unbenannter_Verlauf_23-2);
      }

      .cls-9 {
        filter: url(#drop-shadow-3);
      }

      .cls-10 {
        fill: url(#Unbenannter_Verlauf_23-10);
      }

      .cls-11 {
        fill: url(#Unbenannter_Verlauf_23);
      }

      .cls-12 {
        fill: url(#Unbenannter_Verlauf_23-8);
      }
    </style>
    <linearGradient id="Unbenannter_Verlauf_23" data-name="Unbenannter Verlauf 23" x1="1135.46" y1="455.58" x2="3215.93" y2="455.58" gradientUnits="userSpaceOnUse">
      <stop offset=".24" stop-color="#5e43ff"/>
      <stop offset="1" stop-color="#8d8dff"/>
    </linearGradient>
    <linearGradient id="Unbenannter_Verlauf_23-2" data-name="Unbenannter Verlauf 23" x1="173.65" y1="741.39" x2="946.99" y2="80.06" xlink:href="#Unbenannter_Verlauf_23"/>
    <linearGradient id="Unbenannter_Verlauf_23-3" data-name="Unbenannter Verlauf 23" x1="233.07" y1="419.35" x2="849.42" y2="419.35" xlink:href="#Unbenannter_Verlauf_23"/>
    <filter id="drop-shadow-3" x="1153.95" y="191.48" width="1727" height="490.61" filterUnits="userSpaceOnUse">
      <feOffset dx="7" dy="7"/>
      <feGaussianBlur result="blur" stdDeviation="8"/>
      <feFlood flood-color="#000" flood-opacity=".3"/>
      <feComposite in2="blur" operator="in"/>
      <feComposite in="SourceGraphic"/>
    </filter>
    <linearGradient id="Unbenannter_Verlauf_23-4" data-name="Unbenannter Verlauf 23" x1="1121.98" y1="445.88" x2="2857.09" y2="161.43" xlink:href="#Unbenannter_Verlauf_23"/>
    <linearGradient id="Unbenannter_Verlauf_23-5" data-name="Unbenannter Verlauf 23" x1="1134.92" y1="524.8" x2="2870.03" y2="240.35" xlink:href="#Unbenannter_Verlauf_23"/>
    <linearGradient id="Unbenannter_Verlauf_23-6" data-name="Unbenannter Verlauf 23" x1="1132.7" y1="511.27" x2="2867.81" y2="226.82" xlink:href="#Unbenannter_Verlauf_23"/>
    <linearGradient id="Unbenannter_Verlauf_23-7" data-name="Unbenannter Verlauf 23" x1="1145.07" y1="586.71" x2="2880.18" y2="302.27" xlink:href="#Unbenannter_Verlauf_23"/>
    <linearGradient id="Unbenannter_Verlauf_23-8" data-name="Unbenannter Verlauf 23" x1="1148.82" y1="609.59" x2="2883.93" y2="325.15" xlink:href="#Unbenannter_Verlauf_23"/>
    <linearGradient id="Unbenannter_Verlauf_23-9" data-name="Unbenannter Verlauf 23" x1="1162.24" y1="691.47" x2="2897.35" y2="407.03" xlink:href="#Unbenannter_Verlauf_23"/>
    <linearGradient id="Unbenannter_Verlauf_23-10" data-name="Unbenannter Verlauf 23" x1="1162.23" y1="691.42" x2="2897.34" y2="406.97" xlink:href="#Unbenannter_Verlauf_23"/>
  </defs>
  <path class="cls-11" d="M3215.93,455.58c0,95.26-33.91,181.5-88.74,243.93-54.82,62.43-130.56,101.04-214.22,101.04h-1624.25c-24.12,0-46.83-11.34-61.33-30.61l-91.93-122.24h1738.76V110.6h38.75c167.32,0,302.96,154.45,302.96,344.98Z"/>
  <path class="cls-5" d="M2868.44,748.51H233.32L152.26,110.6h2716.18c167.32,0,302.96,142.8,302.96,318.95h0c0,176.15-135.64,318.95-302.96,318.95Z"/>
  <g>
    <path class="cls-8" d="M968.68,56.66H111.32c-9.93,0-15.32,16.25-10.31,27.75h0s99,589.42,99,589.42c-6.1,3.48-11.59,8.04-16.18,13.55l-79.59,95.63c-6.45,7.75-.88,19.44,9.26,19.44h850.63c10.14,0,15.7-11.69,9.26-19.44l-79.59-95.63c-4.03-4.85-8.78-8.96-14.02-12.25l99.21-590.71c5.01-11.49-.38-27.76-10.31-27.76ZM889.17,218.06c-1.97,41.53-9.15,97.35-16.49,126.71-11.15,44.6-27.86,94.63-38.15,124.06-.32,13.2-1.7,26.26-4.16,39.11v158.11h-101.32c-52.45,39.59-118.15,61.46-187.46,62.06h-.68c-69.31-.59-135.01-22.47-187.46-62.06h-103.81v-174.16c-.93-7.62-1.47-15.32-1.66-23.06-10.29-29.43-27-79.46-38.15-124.06-7.12-28.43-14.06-81.64-16.28-122.69-1.02-18.6-1.06-34.7.3-44.88,1.02-7.67,2.92-21.95,10.44-35.31.33-.58.66-1.15,1-1.7,11.33-18.84,30.67-29.59,53.35-29.59,14.99,0,31.55,4.64,50.6,14.16,45.46,22.76,108.79,70.6,148.87,102.98,7.32,5.92,13.86,11.31,19.38,15.95,20.37-2.8,41.64-4.3,63.47-4.46h.61c21.82.16,43.09,1.66,63.47,4.46,5.52-4.64,12.06-10.03,19.38-15.95,40.08-32.38,103.41-80.22,148.87-102.98,19.06-9.53,35.61-14.16,50.6-14.16,22.05,0,40.94,10.16,52.38,28.02.68,1.06,1.34,2.14,1.97,3.26,6.6,11.74,8.92,23.91,10.44,35.31,1.26,9.44,1.31,23.97.52,40.86Z"/>
    <path class="cls-2" d="M846.18,169.36c-2.81-9.8-8.54-18.43-22.31-18.43-7.9,0-18.42,2.84-32.56,9.9-29.6,14.81-67.99,41.58-101.52,66.92-33.92,25.65-62.84,49.83-72.61,58.73-23.98-4.41-49.48-6.72-75.93-6.92-26.45.2-51.95,2.51-75.93,6.92-9.78-8.9-38.69-33.08-72.61-58.73-33.53-25.34-71.92-52.11-101.52-66.92-14.14-7.07-24.66-9.9-32.56-9.9-14.7,0-20.24,9.84-22.86,20.44-.93,3.77-1.49,7.62-1.97,11.16-1.17,8.81-.88,25.52.45,45.22,2.39,35.72,8.16,81.26,14.67,107.24.23.93.47,1.86.71,2.8,12.07,47.46,30.67,101.58,38.61,124.02-.01.35-.03.71-.03,1.07,0,89.62,59.57,167.01,145.77,203.16,32.56,13.65,68.9,21.41,107.26,21.74,38.37-.33,74.71-8.09,107.26-21.74,86.2-36.15,145.77-113.54,145.77-203.16,0-.37-.01-.72-.03-1.07,7.41-20.95,24.12-69.5,36.11-114.48,1.11-4.15,2.18-8.27,3.2-12.34,6.5-25.98,12.27-71.52,14.67-107.24,1.34-19.71,1.63-36.41.45-45.22-.55-4.18-1.23-8.78-2.51-13.17ZM322.01,386.65c-35.62,26.71-58.46-100.99-63.3-158.9-.63-7.64-.96-14.06-.96-18.76,0-21.57,5.42-36.84,20.16-30.24,13.62,6.11,33.01,26.13,51.03,49,29.94,38,56.13,83.89,45.99,87.08-24.41,7.65-22.79,49.23-52.92,71.82ZM417.77,525.25c-34.1,0-61.74-27.64-61.74-61.74,0-10.58,2.66-20.55,7.36-29.26,4.93,12.7,17.26,21.7,31.7,21.7,18.79,0,34.02-15.23,34.02-34.02,0-7.47-2.41-14.36-6.49-19.97,31.83,2.47,56.89,29.09,56.89,61.55,0,34.1-27.64,61.74-61.74,61.74ZM597.95,569.98c-7.41,5.56-16.12,8.39-24.83,8.39-6.11,0-12.23-1.4-17.9-4.23-5.64-2.82-10.34-6.84-13.96-11.71-3.62,4.86-8.32,8.88-13.96,11.71-5.67,2.84-11.79,4.23-17.9,4.23-8.72,0-17.43-2.84-24.83-8.39-4.17-3.14-5.03-9.06-1.89-13.23,3.12-4.17,9.05-5.03,13.23-1.89,6.83,5.13,15.62,6.04,22.96,2.37,7.33-3.67,11.58-11.05,11.68-20.29-.88-.42-1.73-.83-2.53-1.25s-1.59-.83-2.33-1.25c-.37-.2-.73-.4-1.08-.62-1.42-.83-2.72-1.65-3.89-2.47-.59-.4-1.15-.81-1.66-1.22-1.06-.81-1.99-1.63-2.81-2.42-.42-.4-.79-.79-1.15-1.2-.2-.2-.36-.39-.52-.59-.2-.24-.39-.48-.58-.71-.26-.35-.52-.71-.73-1.05-.25-.38-.47-.77-.68-1.13v-.03c-.5-.96-.86-1.89-1.07-2.8-.05-.19-.09-.37-.11-.55-.08-.37-.11-.73-.13-1.08-.19-3.25,1.36-6.21,4.01-8.73,5.49-5.23,15.69-8.54,24.73-8.54s19.25,3.31,24.73,8.54c2.63,2.51,4.18,5.46,4.01,8.71,0,.14-.01.28-.04.43,0,.04,0,.08-.01.11,0,.15-.03.3-.06.47-.04.34-.11.69-.23,1.03-.05.18-.1.34-.15.52s-.11.35-.19.53c-.06.18-.14.35-.21.53-.06.18-.15.35-.25.53-.26.54-.58,1.08-.95,1.63-.24.37-.5.73-.79,1.1-.14.18-.28.37-.45.55-.78.93-1.7,1.86-2.78,2.81-.21.19-.44.38-.67.57-.47.38-.95.76-1.46,1.15-.76.57-1.59,1.15-2.47,1.73-.59.38-1.21.77-1.86,1.16-.32.2-.64.39-.98.58-.34.2-.68.39-1.03.58-.35.2-.71.4-1.08.59-.37.2-.74.39-1.12.58h0c.03.3.04.58.04.87,0,9.4,4.26,16.92,11.69,20.64,7.33,3.67,16.13,2.76,22.96-2.37,4.17-3.12,10.11-2.28,13.23,1.89,3.14,4.17,2.28,10.09-1.89,13.23ZM669.77,525.25c-34.1,0-61.74-27.64-61.74-61.74,0-10.58,2.66-20.55,7.36-29.26,4.93,12.7,17.26,21.7,31.7,21.7,18.79,0,34.02-15.23,34.02-34.02,0-7.47-2.41-14.36-6.49-19.97,31.83,2.47,56.89,29.09,56.89,61.55,0,34.1-27.64,61.74-61.74,61.74ZM823.2,227.75c-4.84,57.91-27.68,185.61-63.3,158.9-30.13-22.59-28.51-64.17-52.92-71.82-10.14-3.19,16.05-49.08,45.99-87.08,18.03-22.87,37.4-42.89,51.03-49,14.74-6.6,20.16,8.67,20.16,30.24,0,4.7-.33,11.13-.96,18.76Z"/>
  </g>
  <g class="cls-9">
    <g>
      <path class="cls-7" d="M1332.32,324.02l-17.67,258.1c-.31,4.65-2.02,6.98-5.12,6.98h-25.58c-17.37,0-29.76-3.41-37.2-10.23-7.44-6.82-11.16-16.58-11.16-29.3,0-4.65.23-11.63.7-20.93s1.16-20.23,2.09-32.79c.93-12.56,1.93-26.2,3.02-40.92,1.08-14.72,2.25-29.6,3.49-44.64,1.24-15.03,2.4-30,3.49-44.88,1.08-14.88,2.09-28.67,3.02-41.39h-74.41c-3.42,0-5.12-2.17-5.12-6.51l1.4-26.04c.3-4.03,1-7.98,2.09-11.86,1.08-3.87,2.86-7.36,5.35-10.46,2.48-3.1,5.65-5.58,9.53-7.44,3.87-1.86,8.6-2.79,14.18-2.79h207.87c1.86,0,3.56.46,5.12,1.39,1.55.93,2.33,2.64,2.33,5.12l-1.86,27.44c-.62,9.3-3.18,16.82-7.67,22.55-4.5,5.74-13.72,8.6-27.67,8.6h-50.22Z"/>
      <path class="cls-4" d="M1510.89,593.74c-13.65,0-27.21-1.71-40.69-5.12-13.49-3.41-25.58-9.3-36.27-17.67-10.7-8.37-19.46-19.53-26.27-33.48-6.82-13.95-10.23-31.46-10.23-52.55,0-7.75.62-17.05,1.86-27.9,1.24-10.85,3.64-22.01,7.21-33.48,3.56-11.47,8.52-22.86,14.88-34.18,6.35-11.31,14.65-21.46,24.88-30.46,10.23-8.99,22.63-16.28,37.2-21.86,14.57-5.58,31.93-8.37,52.08-8.37,16.12,0,29.76,1.86,40.92,5.58,11.16,3.72,20.15,8.76,26.97,15.11,6.82,6.36,11.78,13.72,14.88,22.09,3.1,8.37,4.65,17.37,4.65,26.97,0,14.26-2.87,26.35-8.6,36.27-5.74,9.93-13.18,18.22-22.32,24.88-9.15,6.67-19.3,11.86-30.46,15.58-11.16,3.72-22.17,6.59-33.02,8.6-10.86,2.02-20.85,3.25-30,3.72-9.15.46-16.2.7-21.16.7,0,5.89.85,11.71,2.56,17.44,1.7,5.74,4.26,10.78,7.67,15.11,3.41,4.34,7.91,7.91,13.49,10.7,5.58,2.79,12.4,4.19,20.46,4.19s14.34-1.32,18.83-3.95c4.49-2.63,8.14-5.58,10.93-8.84,2.79-3.25,5.19-6.2,7.21-8.83,2.01-2.63,4.72-3.95,8.14-3.95,1.55,0,4.26.39,8.14,1.16,3.87.78,7.83,2.41,11.86,4.88,4.03,2.48,7.59,5.89,10.7,10.23,3.1,4.34,4.65,9.93,4.65,16.74,0,9-2.79,16.74-8.37,23.25-5.58,6.51-12.79,11.79-21.62,15.81-8.84,4.03-18.68,6.98-29.53,8.84-10.86,1.86-21.39,2.79-31.62,2.79ZM1519.73,390.52c-6.82,0-12.64,1.94-17.44,5.81-4.81,3.88-8.84,8.76-12.09,14.65-3.26,5.89-5.74,12.4-7.44,19.53-1.71,7.13-3.02,13.95-3.95,20.46,19.22-.3,34.8-3.56,46.74-9.77,11.93-6.2,17.9-15.03,17.9-26.51,0-6.2-1.94-11.78-5.81-16.74-3.88-4.96-9.85-7.44-17.9-7.44Z"/>
      <path class="cls-3" d="M1704.81,593.27c-19.23,0-33.02-5.12-41.39-15.35-8.37-10.23-12.56-27.12-12.56-50.69,0-3.72.23-8.37.7-13.95.46-5.58,1.08-12.79,1.86-21.62.77-8.84,1.78-19.76,3.02-32.79,1.24-13.02,2.56-28.83,3.95-47.43,1.4-18.6,2.94-40.46,4.65-65.57,1.7-25.11,3.49-54.25,5.35-87.43.3-6.82,1.08-10.85,2.33-12.09.93-.93,3.41-1.39,7.44-1.39h18.14c9.3,0,17.05,1.09,23.25,3.25,6.2,2.17,11.16,5.12,14.88,8.84,3.72,3.72,6.35,7.99,7.91,12.79,1.55,4.81,2.33,9.85,2.33,15.11,0,6.21-.39,15.11-1.16,26.74-.78,11.63-1.79,24.73-3.02,39.3-1.24,14.58-2.49,29.76-3.72,45.57-1.24,15.81-2.49,30.92-3.72,45.34-1.24,14.42-2.25,27.36-3.02,38.83-.78,11.47-1.16,20.16-1.16,26.04,0,8.07,1.47,13.8,4.42,17.21,2.94,3.42,6.12,5.81,9.53,7.21,3.41,1.4,6.58,2.33,9.53,2.79,2.94.46,4.42,1.48,4.42,3.02,0,6.82-.78,13.57-2.33,20.23-1.56,6.67-4.35,12.72-8.37,18.14-4.03,5.43-9.53,9.77-16.51,13.02-6.98,3.25-15.89,4.88-26.74,4.88Z"/>
      <path class="cls-1" d="M1898.73,593.74c-13.65,0-27.21-1.71-40.69-5.12-13.49-3.41-25.58-9.3-36.27-17.67-10.7-8.37-19.46-19.53-26.27-33.48-6.82-13.95-10.23-31.46-10.23-52.55,0-7.75.62-17.05,1.86-27.9,1.24-10.85,3.64-22.01,7.21-33.48,3.56-11.47,8.52-22.86,14.88-34.18,6.35-11.31,14.65-21.46,24.88-30.46,10.23-8.99,22.63-16.28,37.2-21.86,14.57-5.58,31.93-8.37,52.08-8.37,16.12,0,29.76,1.86,40.92,5.58,11.16,3.72,20.15,8.76,26.97,15.11,6.82,6.36,11.78,13.72,14.88,22.09,3.1,8.37,4.65,17.37,4.65,26.97,0,14.26-2.87,26.35-8.6,36.27-5.74,9.93-13.18,18.22-22.32,24.88-9.15,6.67-19.3,11.86-30.46,15.58-11.16,3.72-22.17,6.59-33.02,8.6-10.86,2.02-20.85,3.25-30,3.72-9.15.46-16.2.7-21.16.7,0,5.89.85,11.71,2.56,17.44,1.7,5.74,4.26,10.78,7.67,15.11,3.41,4.34,7.91,7.91,13.49,10.7,5.58,2.79,12.4,4.19,20.46,4.19s14.34-1.32,18.83-3.95c4.49-2.63,8.14-5.58,10.93-8.84,2.79-3.25,5.19-6.2,7.21-8.83,2.01-2.63,4.72-3.95,8.14-3.95,1.55,0,4.26.39,8.14,1.16,3.87.78,7.83,2.41,11.86,4.88,4.03,2.48,7.59,5.89,10.7,10.23,3.1,4.34,4.65,9.93,4.65,16.74,0,9-2.79,16.74-8.37,23.25-5.58,6.51-12.79,11.79-21.62,15.81-8.84,4.03-18.68,6.98-29.53,8.84-10.86,1.86-21.39,2.79-31.62,2.79ZM1907.56,390.52c-6.82,0-12.64,1.94-17.44,5.81-4.81,3.88-8.84,8.76-12.09,14.65-3.26,5.89-5.74,12.4-7.44,19.53-1.71,7.13-3.02,13.95-3.95,20.46,19.22-.3,34.8-3.56,46.74-9.77,11.93-6.2,17.9-15.03,17.9-26.51,0-6.2-1.94-11.78-5.81-16.74-3.88-4.96-9.85-7.44-17.9-7.44Z"/>
      <path class="cls-12" d="M2282.85,521.19c12.71,0,23.48-1.86,32.32-5.58,8.84-3.72,16.35-7.91,22.55-12.56,6.2-4.65,11.7-8.84,16.51-12.56,4.8-3.72,9.69-5.58,14.65-5.58,6.2,0,9.3,4.65,9.3,13.95,0,4.96-.62,10.93-1.86,17.9-1.24,6.98-2.95,14.81-5.12,23.48-1.24,5.28-4.26,11.01-9.07,17.21-4.81,6.21-11.39,12.02-19.76,17.44-8.37,5.43-18.68,9.93-30.92,13.49-12.25,3.56-26.28,5.35-42.09,5.35s-31.62-2.33-47.43-6.98-29.92-12.56-42.32-23.72c-12.4-11.16-22.48-26.2-30.23-45.11-7.75-18.91-11.63-42.62-11.63-71.15,0-10.23.7-22.09,2.09-35.58,1.39-13.49,4.11-27.36,8.14-41.62,4.03-14.26,9.69-28.29,16.97-42.09,7.28-13.79,16.66-26.11,28.13-36.97,11.47-10.85,25.5-19.6,42.09-26.27,16.58-6.66,36.35-10,59.29-10,18.29,0,34.18,2.17,47.67,6.51,13.49,4.35,24.65,10.31,33.48,17.9,8.84,7.6,15.35,16.51,19.53,26.74,4.19,10.23,6.28,21.09,6.28,32.55,0,19.84-5.81,34.34-17.44,43.48-11.63,9.15-28.13,13.72-49.53,13.72-6.82,0-11.09-.54-12.79-1.63-1.71-1.08-2.56-3.33-2.56-6.74-.31-10.54-.62-19.68-.93-27.44-.31-7.75-1.4-14.18-3.26-19.3-1.86-5.12-4.73-8.84-8.6-11.16-3.88-2.33-9.23-3.49-16.04-3.49-9.93,0-18.37,2.09-25.34,6.28s-12.87,9.61-17.67,16.28c-4.81,6.67-8.68,14.18-11.63,22.55-2.95,8.37-5.28,16.9-6.98,25.58-1.71,8.68-2.79,17.05-3.25,25.11-.47,8.07-.7,15.04-.7,20.93,0,28.53,4.72,48.83,14.18,60.92,9.45,12.09,24.1,18.14,43.95,18.14Z"/>
      <path class="cls-6" d="M2411.66,531.89c0-27.9,12.56-49.76,37.67-65.57,25.11-15.81,62.16-24.33,111.14-25.58.31-3.41.54-6.28.7-8.6.15-2.33.23-5.19.23-8.6,0-9.92-1.86-17.82-5.58-23.72-3.72-5.89-11.47-8.83-23.25-8.83-6.51,0-11.79.93-15.81,2.79-4.03,1.86-7.29,4.42-9.77,7.67-2.48,3.25-4.5,7.21-6.04,11.86-1.56,4.65-2.95,9.77-4.19,15.35-.62,2.79-2.02,4.58-4.19,5.35-2.17.78-5.58,1.16-10.23,1.16-31.62,0-47.43-11.93-47.43-35.81,0-9.61,2.25-18.75,6.74-27.44,4.49-8.68,11.16-16.2,20-22.55,8.84-6.35,19.92-11.39,33.25-15.11,13.33-3.72,28.83-5.58,46.5-5.58,34.41,0,59.37,7.13,74.87,21.39,15.5,14.26,23.25,34.41,23.25,60.46,0,3.42-.39,9.53-1.16,18.37-.78,8.84-1.71,18.14-2.79,27.9-1.09,9.77-2.02,18.99-2.79,27.67-.78,8.68-1.16,14.73-1.16,18.14,0,7.75,1.4,13.25,4.19,16.51,2.79,3.25,5.97,5.51,9.53,6.74,3.56,1.24,6.74,2.17,9.53,2.79,2.79.62,4.19,2.17,4.19,4.65,0,6.82-.93,13.8-2.79,20.93-1.86,7.14-4.88,13.65-9.07,19.53-4.19,5.89-9.93,10.7-17.21,14.42-7.29,3.72-16.2,5.58-26.74,5.58-14.88,0-26.04-3.57-33.48-10.7-7.44-7.13-12.4-17.05-14.88-29.76-7.44,10.86-17.13,20.31-29.07,28.37-11.94,8.06-27.52,12.09-46.74,12.09-9.3,0-18.06-1.09-26.27-3.25-8.22-2.17-15.35-5.73-21.39-10.7-6.05-4.96-10.86-11.39-14.42-19.3-3.57-7.91-5.35-17.44-5.35-28.6ZM2556.29,478.87c-8.07,0-15.97.62-23.72,1.86-7.75,1.24-14.65,3.18-20.69,5.81-6.04,2.64-10.93,6.12-14.65,10.46-3.72,4.35-5.58,9.61-5.58,15.81,0,7.14,2.25,12.09,6.74,14.88,4.49,2.79,9.37,4.18,14.65,4.18,4.96,0,9.92-1.08,14.88-3.25,4.96-2.17,9.37-5.5,13.25-10,3.87-4.49,7.21-10,10-16.51,2.79-6.51,4.49-14.26,5.12-23.25Z"/>
      <path class="cls-10" d="M2787.4,396.1c-.93,11.79-1.94,23.41-3.02,34.88-1.09,11.47-2.09,22.32-3.02,32.55-.93,10.23-1.63,19.38-2.09,27.44-.46,8.07-.7,14.26-.7,18.6,0,8.07.93,13.41,2.79,16.04,1.86,2.64,4.96,3.95,9.3,3.95,3.41,0,6.35-.62,8.84-1.86,2.48-1.24,4.8-2.63,6.98-4.19,2.17-1.55,4.11-2.94,5.81-4.19,1.7-1.24,3.64-1.86,5.81-1.86s4.18,1.24,6.04,3.72c1.86,2.48,2.79,8.22,2.79,17.21,0,17.05-4.65,30.54-13.95,40.46-9.3,9.92-25.27,14.88-47.9,14.88s-38.83-5.19-49.53-15.58c-10.7-10.38-16.04-26.27-16.04-47.67,0-4.65.23-10.15.7-16.51.46-6.35,1.16-14.65,2.09-24.88.93-10.23,2.09-22.79,3.49-37.67,1.4-14.88,2.86-33.32,4.42-55.34h-24.65c-2.48,0-3.95-.54-4.42-1.63-.47-1.08-.7-2.71-.7-4.88l1.4-23.72c.3-4.03.85-7.98,1.63-11.86.77-3.87,2.33-7.36,4.65-10.46,2.33-3.1,5.65-5.58,10-7.44,4.34-1.86,10.07-2.79,17.21-2.79,2.17-5.58,4.65-12.24,7.44-20,2.79-7.75,5.58-15.27,8.37-22.55,2.79-7.28,5.5-13.41,8.14-18.37,2.63-4.96,5.04-7.44,7.21-7.44h13.49c13.02,0,22.01,4.03,26.97,12.09,4.96,8.07,7.44,17.67,7.44,28.83,0,6.21-.46,15.35-1.39,27.44h48.83c4.96,0,7.44,2.17,7.44,6.51l-1.86,25.11c-.62,9.3-3.18,16.82-7.67,22.55-4.5,5.74-13.72,8.6-27.67,8.6h-24.65Z"/>
    </g>
  </g>
</svg>