<?xml version="1.0" encoding="UTF-8"?>
<svg id="Ebene_8" xmlns="http://www.w3.org/2000/svg" xmlns:xlink="http://www.w3.org/1999/xlink" viewBox="0 0 1080 1080">
  <defs>
    <style>
      .cls-1 {
        fill: #1b1f3a;
      }

      .cls-2 {
        fill: url(#Unbenannter_Verlauf_23-2);
      }

      .cls-3 {
        fill: url(#Unbenannter_Verlauf_23);
      }
    </style>
    <linearGradient id="Unbenannter_Verlauf_23" data-name="Unbenannter Verlauf 23" x1="189.27" y1="867.49" x2="925.12" y2="180.41" gradientUnits="userSpaceOnUse">
      <stop offset=".24" stop-color="#5e43ff"/>
      <stop offset="1" stop-color="#8d8dff"/>
    </linearGradient>
    <linearGradient id="Unbenannter_Verlauf_23-2" data-name="Unbenannter Verlauf 23" x1="113.6" y1="841.13" x2="907.2" y2="100.13" xlink:href="#Unbenannter_Verlauf_23"/>
  </defs>
  <path class="cls-1" d="M1080,540c0,127.28-44.04,244.28-117.72,336.59-12.3,15.42-25.43,30.16-39.33,44.13-97.81,98.38-233.27,159.28-382.95,159.28s-285.14-60.9-382.95-159.28c-14.35-14.43-27.88-29.66-40.52-45.62C43.57,783.02,0,666.6,0,540c0-115.91,36.52-223.29,98.7-311.27,17.48-24.77,37.02-48,58.35-69.45C254.86,60.9,390.32,0,540,0s285.14,60.9,382.95,159.28c21.33,21.45,40.87,44.68,58.36,69.45,62.17,87.98,98.69,195.36,98.69,311.27Z"/>
  <g>
    <path class="cls-3" d="M886.91,790.73l94.4-562c-17.49-24.77-37.03-48-58.36-69.45H157.05c-21.33,21.45-40.87,44.68-58.35,69.45l94.17,560.67c-6.22,3.55-11.83,8.21-16.52,13.83l-59.82,71.87c12.64,15.96,26.17,31.19,40.52,45.62h765.9c13.9-13.97,27.03-28.71,39.33-44.13l-61.05-73.36c-4.12-4.95-8.97-9.15-14.32-12.5ZM840.71,580.09c-.32,13.48-1.73,26.81-4.24,39.93v161.43h-103.45c-53.55,40.42-120.63,62.75-191.4,63.36h-.69c-70.77-.61-137.85-22.94-191.4-63.36h-106v-177.81c-.95-7.79-1.5-15.65-1.69-23.55-10.52-30.05-27.57-81.12-38.96-126.66-7.27-29.03-14.36-83.35-16.62-125.27-1.04-18.98-1.08-35.43.31-45.82,1.04-7.83,2.98-22.41,10.66-36.05.34-.59.67-1.17,1.02-1.73,11.57-19.24,31.31-30.21,54.47-30.21,15.31,0,32.21,4.73,51.66,14.46,46.42,23.23,111.08,72.08,152,105.14,7.47,6.05,14.15,11.56,19.79,16.29,20.8-2.86,42.51-4.39,64.79-4.55h.62c22.28.16,44,1.69,64.8,4.55,5.64-4.73,12.31-10.24,19.79-16.29,40.92-33.06,105.58-81.91,151.99-105.14,19.47-9.73,36.36-14.46,51.67-14.46,22.51,0,41.8,10.37,53.48,28.61.69,1.08,1.36,2.19,2,3.33,6.74,11.99,9.11,24.42,10.67,36.05,1.28,9.64,1.34,24.47.53,41.72-2.01,42.4-9.34,99.39-16.84,129.37-11.39,45.54-28.45,96.61-38.96,126.66Z"/>
    <path class="cls-2" d="M855.17,287.78c-.56-4.27-1.26-8.96-2.56-13.44-2.87-10.01-8.72-18.82-22.78-18.82-8.07,0-18.81,2.89-33.24,10.11-30.22,15.11-69.42,42.45-103.65,68.32-34.64,26.2-64.16,50.88-74.14,59.97-24.49-4.51-50.52-6.86-77.53-7.07-27,.21-53.04,2.56-77.52,7.07-9.98-9.09-39.51-33.77-74.14-59.97-34.23-25.87-73.43-53.21-103.65-68.32-14.43-7.22-25.18-10.11-33.24-10.11-15.01,0-20.66,10.04-23.34,20.86-.95,3.85-1.52,7.79-2,11.4-1.2,8.99-.91,26.05.46,46.17,2.44,36.47,8.33,82.97,14.97,109.49.24.96.48,1.91.72,2.86,12.33,48.46,31.32,103.72,39.42,126.63-.01.36-.02.72-.02,1.09,0,91.51,60.82,170.52,148.83,207.43,33.24,13.93,70.34,21.86,109.51,22.19,39.18-.33,76.28-8.26,109.52-22.19,88.01-36.91,148.83-115.92,148.83-207.43,0-.37-.01-.73-.02-1.09,7.56-21.4,24.62-70.96,36.87-116.89,1.13-4.23,2.22-8.44,3.26-12.6,6.64-26.52,12.53-73.02,14.98-109.49,1.36-20.12,1.66-37.18.46-46.17ZM317.43,496.19c-36.37,27.27-59.69-103.11-64.63-162.24-.65-7.79-.98-14.35-.98-19.15,0-22.03,5.53-37.62,20.58-30.88,13.91,6.24,33.71,26.68,52.1,50.03,30.57,38.8,57.32,85.66,46.96,88.91-24.92,7.81-23.27,50.26-54.03,73.33ZM415.2,637.7c-34.81,0-63.04-28.22-63.04-63.04,0-10.8,2.72-20.98,7.52-29.87,5.03,12.97,17.62,22.16,32.36,22.16,19.18,0,34.74-15.56,34.74-34.74,0-7.63-2.46-14.67-6.63-20.39,32.5,2.52,58.09,29.7,58.09,62.84,0,34.82-28.23,63.04-63.04,63.04ZM599.16,683.37c-7.56,5.67-16.45,8.57-25.35,8.57-6.24,0-12.49-1.43-18.28-4.32-5.77-2.89-10.56-6.99-14.26-11.96-3.69,4.97-8.49,9.07-14.25,11.96-5.79,2.89-12.04,4.32-18.28,4.32-8.9,0-17.79-2.9-25.36-8.57-4.26-3.2-5.13-9.25-1.93-13.51,3.19-4.26,9.24-5.13,13.51-1.93,6.97,5.24,15.95,6.16,23.44,2.42,7.49-3.74,11.82-11.28,11.93-20.71-.9-.43-1.77-.85-2.59-1.27-.82-.43-1.62-.85-2.38-1.28-.37-.2-.75-.41-1.11-.63-1.45-.85-2.78-1.68-3.97-2.52-.61-.41-1.17-.82-1.7-1.25-1.08-.82-2.03-1.66-2.87-2.47-.42-.41-.81-.81-1.17-1.22-.2-.21-.37-.4-.53-.6-.2-.25-.4-.49-.59-.73-.27-.36-.53-.72-.74-1.06-.26-.39-.48-.79-.7-1.16v-.03c-.51-.97-.87-1.93-1.09-2.85-.05-.2-.09-.38-.12-.57-.08-.37-.11-.74-.13-1.1-.19-3.32,1.39-6.35,4.09-8.92,5.61-5.34,16.02-8.72,25.26-8.72s19.65,3.38,25.25,8.72c2.69,2.56,4.27,5.57,4.09,8.89,0,.14-.01.28-.04.44,0,.04,0,.07,0,.11,0,.16-.03.31-.06.48-.04.35-.12.71-.24,1.05-.05.18-.1.35-.15.53s-.12.36-.19.54c-.07.18-.14.36-.22.54-.07.18-.16.36-.26.54-.27.56-.59,1.11-.96,1.66-.25.37-.52.75-.81,1.12-.15.18-.29.37-.47.57-.8.95-1.73,1.9-2.84,2.87-.22.19-.45.38-.68.57-.48.39-.97.78-1.5,1.18-.77.57-1.62,1.17-2.52,1.76-.6.38-1.23.78-1.9,1.18-.32.21-.66.4-1,.59-.35.21-.7.4-1.06.59-.36.21-.72.42-1.11.61-.37.21-.75.4-1.14.59h0c.03.31.04.59.04.89,0,9.6,4.35,17.28,11.94,21.07,7.48,3.74,16.46,2.82,23.44-2.42,4.25-3.19,10.31-2.33,13.5,1.93,3.21,4.26,2.33,10.31-1.93,13.51ZM672.49,637.7c-34.81,0-63.03-28.22-63.03-63.04,0-10.8,2.71-20.98,7.51-29.87,5.03,12.97,17.62,22.16,32.37,22.16,19.18,0,34.73-15.56,34.73-34.74,0-7.63-2.46-14.67-6.62-20.39,32.49,2.52,58.08,29.7,58.08,62.84,0,34.82-28.22,63.04-63.04,63.04ZM829.15,333.95c-4.94,59.13-28.27,189.51-64.64,162.24-30.76-23.07-29.11-65.52-54.03-73.33-10.35-3.25,16.39-50.11,46.96-88.91,18.41-23.35,38.18-43.79,52.1-50.03,15.05-6.74,20.58,8.85,20.58,30.88,0,4.8-.33,11.36-.97,19.15Z"/>
  </g>
</svg>