<?xml version="1.0" encoding="UTF-8"?>
<svg id="Ebene_4" xmlns="http://www.w3.org/2000/svg" xmlns:xlink="http://www.w3.org/1999/xlink" viewBox="0 0 3134 1080">
  <defs>
    <style>
      .cls-1 {
        fill: url(#Unbenannter_Verlauf_600);
      }

      .cls-2 {
        fill: url(#Unbenannter_Verlauf_600-8);
      }

      .cls-3 {
        fill: url(#Unbenannter_Verlauf_783);
      }

      .cls-4 {
        filter: url(#drop-shadow-1);
      }

      .cls-5 {
        fill: url(#Unbenannter_Verlauf_600-6);
      }

      .cls-6 {
        fill: url(#Unbenannter_Verlauf_783-2);
      }

      .cls-7 {
        fill: url(#Unbenannter_Verlauf_600-4);
      }

      .cls-8 {
        fill: url(#Unbenannter_Verlauf_600-7);
      }

      .cls-9 {
        fill: url(#Unbenannter_Verlauf_600-5);
      }

      .cls-10 {
        fill: url(#Unbenannter_Verlauf_600-2);
      }

      .cls-11 {
        fill: url(#Unbenannter_Verlauf_600-3);
      }
    </style>
    <linearGradient id="Unbenannter_Verlauf_783" data-name="Unbenannter Verlauf 783" x1="523.09" y1="536" x2="3081.44" y2="536" gradientUnits="userSpaceOnUse">
      <stop offset="0" stop-color="#e6e6e6"/>
      <stop offset="1" stop-color="#fff"/>
    </linearGradient>
    <linearGradient id="Unbenannter_Verlauf_783-2" data-name="Unbenannter Verlauf 783" x1="378.88" y1="715.8" x2="736.21" y2="387.41" xlink:href="#Unbenannter_Verlauf_783"/>
    <linearGradient id="Unbenannter_Verlauf_600" data-name="Unbenannter Verlauf 600" x1="28" y1="542" x2="1108" y2="542" gradientUnits="userSpaceOnUse">
      <stop offset="0" stop-color="#2973ff"/>
      <stop offset="1" stop-color="#68bbff"/>
    </linearGradient>
    <filter id="drop-shadow-1" x="1164" y="289.48" width="1727" height="490.61" filterUnits="userSpaceOnUse">
      <feOffset dx="7" dy="7"/>
      <feGaussianBlur result="blur" stdDeviation="8"/>
      <feFlood flood-color="#000" flood-opacity=".3"/>
      <feComposite in2="blur" operator="in"/>
      <feComposite in="SourceGraphic"/>
    </filter>
    <linearGradient id="Unbenannter_Verlauf_600-2" data-name="Unbenannter Verlauf 600" x1="1180.33" y1="532.46" x2="2857.67" y2="327.12" xlink:href="#Unbenannter_Verlauf_600"/>
    <linearGradient id="Unbenannter_Verlauf_600-3" data-name="Unbenannter Verlauf 600" x1="1188.76" y1="601.3" x2="2866.1" y2="395.97" xlink:href="#Unbenannter_Verlauf_600"/>
    <linearGradient id="Unbenannter_Verlauf_600-4" data-name="Unbenannter Verlauf 600" x1="1186.22" y1="580.53" x2="2863.55" y2="375.2" xlink:href="#Unbenannter_Verlauf_600"/>
    <linearGradient id="Unbenannter_Verlauf_600-5" data-name="Unbenannter Verlauf 600" x1="1194.49" y1="648.08" x2="2871.82" y2="442.74" xlink:href="#Unbenannter_Verlauf_600"/>
    <linearGradient id="Unbenannter_Verlauf_600-6" data-name="Unbenannter Verlauf 600" x1="1195.47" y1="656.13" x2="2872.81" y2="450.79" xlink:href="#Unbenannter_Verlauf_600"/>
    <linearGradient id="Unbenannter_Verlauf_600-7" data-name="Unbenannter Verlauf 600" x1="1204.2" y1="727.39" x2="2881.53" y2="522.05" xlink:href="#Unbenannter_Verlauf_600"/>
    <linearGradient id="Unbenannter_Verlauf_600-8" data-name="Unbenannter Verlauf 600" x1="1203.19" y1="719.12" x2="2880.52" y2="513.79" xlink:href="#Unbenannter_Verlauf_600"/>
  </defs>
  <path class="cls-3" d="M523.09,201.64h2223.99c184.54,0,334.36,149.82,334.36,334.36h0c0,184.54-149.82,334.36-334.36,334.36H523.09V201.64h0Z"/>
  <circle class="cls-6" cx="568" cy="542" r="540"/>
  <path class="cls-1" d="M568,2C269.76,2,28,243.76,28,542c0,60.48,9.95,118.64,28.3,172.91,14.19-23.17,30.23-42.17,48.09-53.03,25.15-24.12,8.9-70.06,8.54-110.73-.36-40.7,1.85-80.29,70.09-132.94,13.19-72.32,23.04-144.06,71.66-209,35.49-47.38,39.07,128.92,86.67,150.9,57.99,26.78,109.41,54.57,122.3,64.47,12.89,9.91,140.97-26.29,159.77-20.59,18.78,5.74,29.15,39.24-109.38,177.95,1.03,9.9-2.79,64.36-42.52,110.17,10.69,41.14,18.85,246.66,21.68,384.75,24.44,3.36,49.41,5.13,74.78,5.13,298.24,0,540-241.76,540-540S866.24,2,568,2ZM521.16,332.62h-129.49c-10.66,0-19.29-8.63-19.29-19.29s8.63-19.29,19.29-19.29h129.49c10.66,0,19.29,8.63,19.29,19.29s-8.63,19.29-19.29,19.29ZM614.84,332.62c-10.66,0-19.29-8.63-19.29-19.29s8.63-19.29,19.29-19.29h352.65c10.66,0,19.29,8.63,19.29,19.29s-8.63,19.29-19.29,19.29h-352.65ZM862.8,434.55c0,10.66-8.63,19.29-19.29,19.29h-143.27c-10.65,0-19.28-8.63-19.28-19.29s8.63-19.28,19.28-19.28h143.27c10.66,0,19.29,8.61,19.29,19.28ZM694.73,575.06h-74.38c-10.66,0-19.29-8.61-19.29-19.28s8.63-19.29,19.29-19.29h74.38c10.66,0,19.29,8.63,19.29,19.29s-8.63,19.28-19.29,19.28ZM967.49,575.06h-184.6c-10.66,0-19.28-8.61-19.28-19.28s8.61-19.29,19.28-19.29h184.6c10.66,0,19.29,8.63,19.29,19.29s-8.63,19.28-19.29,19.28ZM975.76,453.84h-44.09c-10.66,0-19.29-8.63-19.29-19.29s8.63-19.28,19.29-19.28h44.09c10.65,0,19.28,8.61,19.28,19.28s-8.63,19.29-19.28,19.29Z"/>
  <g class="cls-4">
    <g>
      <path class="cls-10" d="M1342.31,422.02l-17.67,258.1c-.31,4.65-2.02,6.98-5.12,6.98h-25.58c-17.37,0-29.76-3.41-37.2-10.23-7.44-6.82-11.16-16.58-11.16-29.3,0-4.65.23-11.63.7-20.93s1.16-20.23,2.09-32.79c.93-12.56,1.93-26.2,3.02-40.92,1.08-14.72,2.25-29.6,3.49-44.64,1.24-15.03,2.4-30,3.49-44.88,1.08-14.88,2.09-28.67,3.02-41.39h-74.41c-3.42,0-5.12-2.17-5.12-6.51l1.4-26.04c.3-4.03,1-7.98,2.09-11.86,1.08-3.87,2.86-7.36,5.35-10.46,2.48-3.1,5.65-5.58,9.53-7.44,3.87-1.86,8.6-2.79,14.18-2.79h207.87c1.86,0,3.56.46,5.12,1.39,1.55.93,2.33,2.64,2.33,5.12l-1.86,27.44c-.62,9.3-3.18,16.82-7.67,22.55-4.5,5.74-13.72,8.6-27.67,8.6h-50.22Z"/>
      <path class="cls-11" d="M1520.89,691.74c-13.65,0-27.21-1.71-40.69-5.12-13.49-3.41-25.58-9.3-36.27-17.67-10.7-8.37-19.46-19.53-26.27-33.48-6.82-13.95-10.23-31.46-10.23-52.55,0-7.75.62-17.05,1.86-27.9,1.24-10.85,3.64-22.01,7.21-33.48,3.56-11.47,8.52-22.86,14.88-34.18,6.35-11.31,14.65-21.46,24.88-30.46,10.23-8.99,22.63-16.28,37.2-21.86,14.57-5.58,31.93-8.37,52.08-8.37,16.12,0,29.76,1.86,40.92,5.58,11.16,3.72,20.15,8.76,26.97,15.11,6.82,6.36,11.78,13.72,14.88,22.09,3.1,8.37,4.65,17.37,4.65,26.97,0,14.26-2.87,26.35-8.6,36.27-5.74,9.93-13.18,18.22-22.32,24.88-9.15,6.67-19.3,11.86-30.46,15.58-11.16,3.72-22.17,6.59-33.02,8.6-10.86,2.02-20.85,3.25-30,3.72-9.15.46-16.2.7-21.16.7,0,5.89.85,11.71,2.56,17.44,1.7,5.74,4.26,10.78,7.67,15.11,3.41,4.34,7.91,7.91,13.49,10.7,5.58,2.79,12.4,4.19,20.46,4.19s14.34-1.32,18.83-3.95c4.49-2.63,8.14-5.58,10.93-8.84,2.79-3.25,5.19-6.2,7.21-8.83,2.01-2.63,4.72-3.95,8.14-3.95,1.55,0,4.26.39,8.14,1.16,3.87.78,7.83,2.41,11.86,4.88,4.03,2.48,7.59,5.89,10.7,10.23,3.1,4.34,4.65,9.93,4.65,16.74,0,9-2.79,16.74-8.37,23.25-5.58,6.51-12.79,11.79-21.62,15.81-8.84,4.03-18.68,6.98-29.53,8.84-10.86,1.86-21.39,2.79-31.62,2.79ZM1529.72,488.52c-6.82,0-12.64,1.94-17.44,5.81-4.81,3.88-8.84,8.76-12.09,14.65-3.26,5.89-5.74,12.4-7.44,19.53-1.71,7.13-3.02,13.95-3.95,20.46,19.22-.3,34.8-3.56,46.74-9.77,11.93-6.2,17.9-15.03,17.9-26.51,0-6.2-1.94-11.78-5.81-16.74-3.88-4.96-9.85-7.44-17.9-7.44Z"/>
      <path class="cls-7" d="M1714.81,691.27c-19.23,0-33.02-5.12-41.39-15.35-8.37-10.23-12.56-27.12-12.56-50.69,0-3.72.23-8.37.7-13.95.46-5.58,1.08-12.79,1.86-21.62.77-8.84,1.78-19.76,3.02-32.79,1.24-13.02,2.56-28.83,3.95-47.43,1.4-18.6,2.94-40.46,4.65-65.57,1.7-25.11,3.49-54.25,5.35-87.43.3-6.82,1.08-10.85,2.33-12.09.93-.93,3.41-1.39,7.44-1.39h18.14c9.3,0,17.05,1.09,23.25,3.25,6.2,2.17,11.16,5.12,14.88,8.84,3.72,3.72,6.35,7.99,7.91,12.79,1.55,4.81,2.33,9.85,2.33,15.11,0,6.21-.39,15.11-1.16,26.74-.78,11.63-1.79,24.73-3.02,39.3-1.24,14.58-2.49,29.76-3.72,45.57-1.24,15.81-2.49,30.92-3.72,45.34-1.24,14.42-2.25,27.36-3.02,38.83-.78,11.47-1.16,20.16-1.16,26.04,0,8.07,1.47,13.8,4.42,17.21,2.94,3.42,6.12,5.81,9.53,7.21,3.41,1.4,6.58,2.33,9.53,2.79,2.94.46,4.42,1.48,4.42,3.02,0,6.82-.78,13.57-2.33,20.23-1.56,6.67-4.35,12.72-8.37,18.14-4.03,5.43-9.53,9.77-16.51,13.02-6.98,3.25-15.89,4.88-26.74,4.88Z"/>
      <path class="cls-9" d="M1908.73,691.74c-13.65,0-27.21-1.71-40.69-5.12-13.49-3.41-25.58-9.3-36.27-17.67-10.7-8.37-19.46-19.53-26.27-33.48-6.82-13.95-10.23-31.46-10.23-52.55,0-7.75.62-17.05,1.86-27.9,1.24-10.85,3.64-22.01,7.21-33.48,3.56-11.47,8.52-22.86,14.88-34.18,6.35-11.31,14.65-21.46,24.88-30.46,10.23-8.99,22.63-16.28,37.2-21.86,14.57-5.58,31.93-8.37,52.08-8.37,16.12,0,29.76,1.86,40.92,5.58,11.16,3.72,20.15,8.76,26.97,15.11,6.82,6.36,11.78,13.72,14.88,22.09,3.1,8.37,4.65,17.37,4.65,26.97,0,14.26-2.87,26.35-8.6,36.27-5.74,9.93-13.18,18.22-22.32,24.88-9.15,6.67-19.3,11.86-30.46,15.58-11.16,3.72-22.17,6.59-33.02,8.6-10.86,2.02-20.85,3.25-30,3.72-9.15.46-16.2.7-21.16.7,0,5.89.85,11.71,2.56,17.44,1.7,5.74,4.26,10.78,7.67,15.11,3.41,4.34,7.91,7.91,13.49,10.7,5.58,2.79,12.4,4.19,20.46,4.19s14.34-1.32,18.83-3.95c4.49-2.63,8.14-5.58,10.93-8.84,2.79-3.25,5.19-6.2,7.21-8.83,2.01-2.63,4.72-3.95,8.14-3.95,1.55,0,4.26.39,8.14,1.16,3.87.78,7.83,2.41,11.86,4.88,4.03,2.48,7.59,5.89,10.7,10.23,3.1,4.34,4.65,9.93,4.65,16.74,0,9-2.79,16.74-8.37,23.25-5.58,6.51-12.79,11.79-21.62,15.81-8.84,4.03-18.68,6.98-29.53,8.84-10.86,1.86-21.39,2.79-31.62,2.79ZM1917.56,488.52c-6.82,0-12.64,1.94-17.44,5.81-4.81,3.88-8.84,8.76-12.09,14.65-3.26,5.89-5.74,12.4-7.44,19.53-1.71,7.13-3.02,13.95-3.95,20.46,19.22-.3,34.8-3.56,46.74-9.77,11.93-6.2,17.9-15.03,17.9-26.51,0-6.2-1.94-11.78-5.81-16.74-3.88-4.96-9.85-7.44-17.9-7.44Z"/>
      <path class="cls-5" d="M2292.84,619.19c12.71,0,23.48-1.86,32.32-5.58,8.84-3.72,16.35-7.91,22.55-12.56,6.2-4.65,11.7-8.84,16.51-12.56,4.8-3.72,9.69-5.58,14.65-5.58,6.2,0,9.3,4.65,9.3,13.95,0,4.96-.62,10.93-1.86,17.9-1.24,6.98-2.95,14.81-5.12,23.48-1.24,5.28-4.26,11.01-9.07,17.21-4.81,6.21-11.39,12.02-19.76,17.44-8.37,5.43-18.68,9.93-30.92,13.49-12.25,3.56-26.28,5.35-42.09,5.35s-31.62-2.33-47.43-6.98-29.92-12.56-42.32-23.72c-12.4-11.16-22.48-26.2-30.23-45.11-7.75-18.91-11.63-42.62-11.63-71.15,0-10.23.7-22.09,2.09-35.58,1.39-13.49,4.11-27.36,8.14-41.62,4.03-14.26,9.69-28.29,16.97-42.09,7.28-13.79,16.66-26.11,28.13-36.97,11.47-10.85,25.5-19.6,42.09-26.27,16.58-6.66,36.35-10,59.29-10,18.29,0,34.18,2.17,47.67,6.51,13.49,4.35,24.65,10.31,33.48,17.9,8.84,7.6,15.35,16.51,19.53,26.74,4.19,10.23,6.28,21.09,6.28,32.55,0,19.84-5.81,34.34-17.44,43.48-11.63,9.15-28.13,13.72-49.53,13.72-6.82,0-11.09-.54-12.79-1.63-1.71-1.08-2.56-3.33-2.56-6.74-.31-10.54-.62-19.68-.93-27.44-.31-7.75-1.4-14.18-3.26-19.3-1.86-5.12-4.73-8.84-8.6-11.16-3.88-2.33-9.23-3.49-16.04-3.49-9.93,0-18.37,2.09-25.34,6.28s-12.87,9.61-17.67,16.28c-4.81,6.67-8.68,14.18-11.63,22.55-2.95,8.37-5.28,16.9-6.98,25.58-1.71,8.68-2.79,17.05-3.25,25.11-.47,8.07-.7,15.04-.7,20.93,0,28.53,4.72,48.83,14.18,60.92,9.45,12.09,24.1,18.14,43.95,18.14Z"/>
      <path class="cls-8" d="M2421.66,629.89c0-27.9,12.56-49.76,37.67-65.57,25.11-15.81,62.16-24.33,111.14-25.58.31-3.41.54-6.28.7-8.6.15-2.33.23-5.19.23-8.6,0-9.92-1.86-17.82-5.58-23.72-3.72-5.89-11.47-8.83-23.25-8.83-6.51,0-11.79.93-15.81,2.79-4.03,1.86-7.29,4.42-9.77,7.67-2.48,3.25-4.5,7.21-6.04,11.86-1.56,4.65-2.95,9.77-4.19,15.35-.62,2.79-2.02,4.58-4.19,5.35-2.17.78-5.58,1.16-10.23,1.16-31.62,0-47.43-11.93-47.43-35.81,0-9.61,2.25-18.75,6.74-27.44,4.49-8.68,11.16-16.2,20-22.55,8.84-6.35,19.92-11.39,33.25-15.11,13.33-3.72,28.83-5.58,46.5-5.58,34.41,0,59.37,7.13,74.87,21.39,15.5,14.26,23.25,34.41,23.25,60.46,0,3.42-.39,9.53-1.16,18.37-.78,8.84-1.71,18.14-2.79,27.9-1.09,9.77-2.02,18.99-2.79,27.67-.78,8.68-1.16,14.73-1.16,18.14,0,7.75,1.4,13.25,4.19,16.51,2.79,3.25,5.97,5.51,9.53,6.74,3.56,1.24,6.74,2.17,9.53,2.79,2.79.62,4.19,2.17,4.19,4.65,0,6.82-.93,13.8-2.79,20.93-1.86,7.14-4.88,13.65-9.07,19.53-4.19,5.89-9.93,10.7-17.21,14.42-7.29,3.72-16.2,5.58-26.74,5.58-14.88,0-26.04-3.57-33.48-10.7-7.44-7.13-12.4-17.05-14.88-29.76-7.44,10.86-17.13,20.31-29.07,28.37-11.94,8.06-27.52,12.09-46.74,12.09-9.3,0-18.06-1.09-26.27-3.25-8.22-2.17-15.35-5.73-21.39-10.7-6.05-4.96-10.86-11.39-14.42-19.3-3.57-7.91-5.35-17.44-5.35-28.6ZM2566.28,576.87c-8.07,0-15.97.62-23.72,1.86-7.75,1.24-14.65,3.18-20.69,5.81-6.04,2.64-10.93,6.12-14.65,10.46-3.72,4.35-5.58,9.61-5.58,15.81,0,7.14,2.25,12.09,6.74,14.88,4.49,2.79,9.37,4.18,14.65,4.18,4.96,0,9.92-1.08,14.88-3.25,4.96-2.17,9.37-5.5,13.25-10,3.87-4.49,7.21-10,10-16.51,2.79-6.51,4.49-14.26,5.12-23.25Z"/>
      <path class="cls-2" d="M2797.4,494.1c-.93,11.79-1.94,23.41-3.02,34.88-1.09,11.47-2.09,22.32-3.02,32.55-.93,10.23-1.63,19.38-2.09,27.44-.46,8.07-.7,14.26-.7,18.6,0,8.07.93,13.41,2.79,16.04,1.86,2.64,4.96,3.95,9.3,3.95,3.41,0,6.35-.62,8.84-1.86,2.48-1.24,4.8-2.63,6.98-4.19,2.17-1.55,4.11-2.94,5.81-4.19,1.7-1.24,3.64-1.86,5.81-1.86s4.18,1.24,6.04,3.72c1.86,2.48,2.79,8.22,2.79,17.21,0,17.05-4.65,30.54-13.95,40.46-9.3,9.92-25.27,14.88-47.9,14.88s-38.83-5.19-49.53-15.58c-10.7-10.38-16.04-26.27-16.04-47.67,0-4.65.23-10.15.7-16.51.46-6.35,1.16-14.65,2.09-24.88.93-10.23,2.09-22.79,3.49-37.67,1.4-14.88,2.86-33.32,4.42-55.34h-24.65c-2.48,0-3.95-.54-4.42-1.63-.47-1.08-.7-2.71-.7-4.88l1.4-23.72c.3-4.03.85-7.98,1.63-11.86.77-3.87,2.33-7.36,4.65-10.46,2.33-3.1,5.65-5.58,10-7.44,4.34-1.86,10.07-2.79,17.21-2.79,2.17-5.58,4.65-12.24,7.44-20,2.79-7.75,5.58-15.27,8.37-22.55,2.79-7.28,5.5-13.41,8.14-18.37,2.63-4.96,5.04-7.44,7.21-7.44h13.49c13.02,0,22.01,4.03,26.97,12.09,4.96,8.07,7.44,17.67,7.44,28.83,0,6.21-.46,15.35-1.39,27.44h48.83c4.96,0,7.44,2.17,7.44,6.51l-1.86,25.11c-.62,9.3-3.18,16.82-7.67,22.55-4.5,5.74-13.72,8.6-27.67,8.6h-24.65Z"/>
    </g>
  </g>
</svg>