<?xml version="1.0" encoding="UTF-8"?>
<svg id="LOGO_x5F_CIRCLE" xmlns="http://www.w3.org/2000/svg" xmlns:xlink="http://www.w3.org/1999/xlink" viewBox="0 0 1080 1080">
  <defs>
    <style>
      .cls-1 {
        fill: url(#Unbenannter_Verlauf_600);
      }

      .cls-2 {
        fill: url(#Unbenannter_Verlauf_783);
      }
    </style>
    <linearGradient id="Unbenannter_Verlauf_783" data-name="Unbenannter Verlauf 783" x1="350.48" y1="713.72" x2="707.63" y2="385.49" gradientUnits="userSpaceOnUse">
      <stop offset="0" stop-color="#e6e6e6"/>
      <stop offset="1" stop-color="#fff"/>
    </linearGradient>
    <linearGradient id="Unbenannter_Verlauf_600" data-name="Unbenannter Verlauf 600" x1="0" y1="540" x2="1080" y2="540" gradientUnits="userSpaceOnUse">
      <stop offset="0" stop-color="#2973ff"/>
      <stop offset="1" stop-color="#68bbff"/>
    </linearGradient>
  </defs>
  <ellipse class="cls-2" cx="539.5" cy="540" rx="539.5" ry="540"/>
  <path class="cls-1" d="M540,0C241.76,0,0,241.76,0,540c0,60.48,9.95,118.64,28.3,172.91,14.19-23.17,30.23-42.17,48.09-53.03,25.15-24.12,8.9-70.06,8.54-110.73-.36-40.7,1.85-80.29,70.09-132.94,13.19-72.32,23.04-144.06,71.66-209,35.49-47.38,39.07,128.92,86.67,150.9,57.99,26.78,109.41,54.57,122.3,64.47,12.89,9.91,140.97-26.29,159.77-20.59,18.78,5.74,29.15,39.24-109.38,177.95,1.03,9.9-2.79,64.36-42.52,110.17,10.69,41.14,18.85,246.66,21.68,384.75,24.44,3.36,49.41,5.13,74.78,5.13,298.24,0,540-241.76,540-540S838.24,0,540,0ZM493.16,330.62h-129.49c-10.66,0-19.29-8.63-19.29-19.29s8.63-19.29,19.29-19.29h129.49c10.66,0,19.29,8.63,19.29,19.29s-8.63,19.29-19.29,19.29ZM586.84,330.62c-10.66,0-19.29-8.63-19.29-19.29s8.63-19.29,19.29-19.29h352.65c10.66,0,19.29,8.63,19.29,19.29s-8.63,19.29-19.29,19.29h-352.65ZM834.8,432.55c0,10.66-8.63,19.29-19.29,19.29h-143.27c-10.65,0-19.28-8.63-19.28-19.29s8.63-19.28,19.28-19.28h143.27c10.66,0,19.29,8.61,19.29,19.28ZM666.73,573.06h-74.38c-10.66,0-19.29-8.61-19.29-19.28s8.63-19.29,19.29-19.29h74.38c10.66,0,19.29,8.63,19.29,19.29s-8.63,19.28-19.29,19.28ZM939.49,573.06h-184.6c-10.66,0-19.28-8.61-19.28-19.28s8.61-19.29,19.28-19.29h184.6c10.66,0,19.29,8.63,19.29,19.29s-8.63,19.28-19.29,19.28ZM947.76,451.84h-44.09c-10.66,0-19.29-8.63-19.29-19.29s8.63-19.28,19.29-19.28h44.09c10.65,0,19.28,8.61,19.28,19.28s-8.63,19.29-19.28,19.29Z"/>
</svg>