<?xml version="1.0" encoding="UTF-8"?>
<svg id="Ebene_10" xmlns="http://www.w3.org/2000/svg" xmlns:xlink="http://www.w3.org/1999/xlink" viewBox="0 0 3086.24 864">
  <defs>
    <style>
      .cls-1 {
        fill: url(#Unbenannter_Verlauf_113-10);
      }

      .cls-2 {
        fill: url(#Unbenannter_Verlauf_113-2);
      }

      .cls-3 {
        fill: #1b1f3a;
      }

      .cls-4 {
        fill: url(#Unbenannter_Verlauf_113-3);
      }

      .cls-5 {
        fill: url(#Unbenannter_Verlauf_113);
      }

      .cls-6 {
        fill: url(#Unbenannter_Verlauf_113-9);
      }

      .cls-7 {
        fill: url(#Unbenannter_Verlauf_113-8);
      }

      .cls-8 {
        fill: url(#Unbenannter_Verlauf_113-6);
      }

      .cls-9 {
        fill: url(#Unbenannter_Verlauf_113-4);
      }

      .cls-10 {
        fill: url(#Unbenannter_Verlauf_113-5);
      }

      .cls-11 {
        fill: url(#Unbenannter_Verlauf_113-7);
      }
    </style>
    <linearGradient id="Unbenannter_Verlauf_113" data-name="Unbenannter Verlauf 113" x1="352.76" y1="455.58" x2="3023.14" y2="455.58" gradientUnits="userSpaceOnUse">
      <stop offset=".24" stop-color="#ff7844"/>
      <stop offset="1" stop-color="#ffcd5c"/>
    </linearGradient>
    <linearGradient id="Unbenannter_Verlauf_113-2" data-name="Unbenannter Verlauf 113" x1="537.07" y1="461.71" x2="2602.02" y2="181.81" xlink:href="#Unbenannter_Verlauf_113"/>
    <linearGradient id="Unbenannter_Verlauf_113-3" data-name="Unbenannter Verlauf 113" x1="546.41" y1="530.66" x2="2611.37" y2="250.76" xlink:href="#Unbenannter_Verlauf_113"/>
    <linearGradient id="Unbenannter_Verlauf_113-4" data-name="Unbenannter Verlauf 113" x1="550.93" y1="563.96" x2="2615.88" y2="284.05" xlink:href="#Unbenannter_Verlauf_113"/>
    <linearGradient id="Unbenannter_Verlauf_113-5" data-name="Unbenannter Verlauf 113" x1="556.7" y1="606.58" x2="2621.66" y2="326.67" xlink:href="#Unbenannter_Verlauf_113"/>
    <linearGradient id="Unbenannter_Verlauf_113-6" data-name="Unbenannter Verlauf 113" x1="555.14" y1="595.02" x2="2620.09" y2="315.12" xlink:href="#Unbenannter_Verlauf_113"/>
    <linearGradient id="Unbenannter_Verlauf_113-7" data-name="Unbenannter Verlauf 113" x1="563.22" y1="654.66" x2="2628.18" y2="374.76" xlink:href="#Unbenannter_Verlauf_113"/>
    <linearGradient id="Unbenannter_Verlauf_113-8" data-name="Unbenannter Verlauf 113" x1="567.86" y1="688.88" x2="2632.81" y2="408.97" xlink:href="#Unbenannter_Verlauf_113"/>
    <linearGradient id="Unbenannter_Verlauf_113-9" data-name="Unbenannter Verlauf 113" x1="567.74" y1="688.03" x2="2632.7" y2="408.12" xlink:href="#Unbenannter_Verlauf_113"/>
    <linearGradient id="Unbenannter_Verlauf_113-10" data-name="Unbenannter Verlauf 113" x1="224.98" y1="413.31" x2="627.35" y2="413.31" xlink:href="#Unbenannter_Verlauf_113"/>
  </defs>
  <path class="cls-5" d="M3023.14,455.58c0,95.26-33.91,181.5-88.74,243.93-54.82,62.43-130.56,101.04-214.22,101.04H909.97c-24.12,0-46.83-11.34-61.32-30.61L352.76,110.6h2367.42c167.32,0,302.96,154.45,302.96,344.98Z"/>
  <g>
    <path class="cls-3" d="M45.43,429.56c0,88.07,33.91,167.81,88.73,225.53,54.83,57.72,130.57,93.42,214.23,93.42h1163.63V110.6H348.39c-167.32,0-302.96,142.8-302.96,318.96Z"/>
    <path class="cls-3" d="M2978.61,429.56c0,88.07-33.91,167.81-88.73,225.53-54.83,57.72-130.57,93.42-214.23,93.42h-1163.63V110.6h1163.63c167.32,0,302.96,142.8,302.96,318.96Z"/>
  </g>
  <g>
    <path class="cls-2" d="M804.35,282.55c.26-2.11,1.12-3.63,2.58-4.56,1.45-.92,2.84-1.39,4.16-1.39,17.96,0,34.8-.59,50.52-1.78,15.71-1.19,28.07-1.78,37.05-1.78,22.45,0,41.27,2.25,56.47,6.74,15.19,4.5,27.47,11.49,36.85,21,9.37,9.51,16.05,21.79,20.01,36.85,3.96,15.06,5.94,33.16,5.94,54.29s-2.18,42.34-6.54,62.81c-4.36,20.48-11.96,38.64-22.79,54.49-10.84,15.85-25.43,28.6-43.79,38.24-18.36,9.65-41.55,14.46-69.54,14.46-12.95,0-24.77-.27-35.47-.79-10.7-.53-19.88-2.12-27.54-4.76-7.67-2.64-13.61-6.6-17.83-11.89-4.23-5.28-6.34-12.54-6.34-21.79,0-3.43.2-8.58.59-15.45.4-6.87.92-15.06,1.58-24.57.66-9.51,1.45-20.01,2.38-31.5.92-11.49,1.91-23.58,2.97-36.26,2.11-26.15,3.76-47.02,4.95-62.61,1.19-15.58,1.98-27.8,2.38-36.65.4-8.85.66-15.52.79-20.01.13-4.49.33-8.85.59-13.08ZM878.06,499.31c14.79,0,26.61-3.17,35.47-9.51,8.85-6.34,15.65-14.4,20.41-24.17,4.75-9.77,7.92-20.47,9.51-32.1,1.58-11.62,2.38-22.59,2.38-32.89,0-11.1-.73-20.8-2.18-29.13-1.45-8.32-3.96-15.26-7.53-20.8-3.57-5.55-8.52-9.71-14.86-12.48-6.34-2.77-14.27-4.16-23.78-4.16-2.91,0-6.61.14-11.1.4-4.5.27-9.91.66-16.25,1.19-.53,9.78-1.19,21.34-1.98,34.67-.79,13.34-1.65,27.34-2.58,42-.93,14.66-1.92,29.46-2.97,44.38-1.06,14.93-2.12,28.73-3.17,41.41,3.96.53,7.53.86,10.7.99,3.17.14,5.81.2,7.92.2Z"/>
    <path class="cls-4" d="M1136.81,561.92c-18.23,0-33.35-2.58-45.37-7.73-12.02-5.15-21.6-12.22-28.73-21.2-7.13-8.98-12.15-19.48-15.06-31.5-2.91-12.02-4.36-24.9-4.36-38.64,0-15.85,1.91-31.37,5.75-46.56,3.83-15.19,10.37-28.73,19.62-40.62,9.24-11.89,21.46-21.46,36.65-28.73,15.19-7.26,34.14-10.9,56.87-10.9,33.29,0,57.12,8.12,71.53,24.37,14.4,16.25,21.6,39.03,21.6,68.36,0,8.19-.59,17.24-1.78,27.14-1.19,9.91-3.44,19.75-6.74,29.52-3.31,9.78-7.8,19.29-13.47,28.53-5.68,9.25-12.88,17.44-21.6,24.57-8.72,7.13-19.22,12.82-31.5,17.04-12.28,4.22-26.75,6.34-43.39,6.34ZM1155.44,388.75c-10.04,0-18.03,2.58-23.97,7.73-5.94,5.15-10.44,11.36-13.47,18.62-3.04,7.27-5.02,14.93-5.94,22.98-.93,8.06-1.39,14.86-1.39,20.41,0,17.44,2.77,30.25,8.32,38.44,5.55,8.19,13.47,12.28,23.78,12.28,9.24,0,16.84-2.9,22.79-8.72,5.94-5.81,10.56-12.81,13.87-21,3.3-8.19,5.55-16.77,6.74-25.76,1.19-8.98,1.78-16.51,1.78-22.59,0-13.21-2.45-23.58-7.33-31.11-4.89-7.53-13.28-11.29-25.16-11.29Z"/>
    <path class="cls-9" d="M1494.64,515.55c3.43-19.28,6.4-36.12,8.92-50.52,2.51-14.4,4.62-26.88,6.34-37.45,1.72-10.56,3.17-19.68,4.36-27.34,1.19-7.66,2.24-14.46,3.17-20.41.92-5.94,1.72-11.23,2.38-15.85.66-4.62,1.39-9.44,2.18-14.46.53-2.9,1.91-5.15,4.16-6.74,2.24-1.58,6.54-2.38,12.88-2.38,3.43,0,8.25.2,14.46.59,6.2.4,12.35,1.39,18.43,2.97,6.07,1.58,11.29,4.03,15.65,7.33,4.36,3.31,6.54,7.86,6.54,13.67,0,4.23-1.19,10.5-3.57,18.82s-5.42,17.9-9.11,28.73c-3.7,10.84-7.92,22.39-12.68,34.67-4.75,12.28-9.58,24.44-14.46,36.46-4.89,12.02-9.58,23.45-14.07,34.28-4.5,10.84-8.32,20.21-11.49,28.14-2.12,4.75-4.16,7.92-6.14,9.51-1.98,1.58-5.49,2.38-10.5,2.38h-23.38c-7.4,0-13.47-.92-18.23-2.77-4.75-1.85-8.59-4.36-11.49-7.53-2.91-3.17-5.15-6.8-6.74-10.9-1.59-4.09-2.77-8.52-3.57-13.28-2.64-13.47-5.42-31.56-8.32-54.29-2.91-22.72-5.55-49.53-7.93-80.44-1.33,5.81-2.84,13.61-4.56,23.38-1.72,9.78-3.57,20.35-5.55,31.7-1.98,11.36-4.03,22.98-6.14,34.87-2.12,11.89-4.1,22.92-5.94,33.09-1.85,10.17-3.57,18.89-5.15,26.15-1.59,7.27-2.91,11.96-3.96,14.07-1.33,2.64-2.97,4.3-4.95,4.95-1.98.66-4.82.99-8.52.99h-27.74c-6.87,0-12.75-.99-17.63-2.97-4.89-1.98-9.11-4.56-12.68-7.73-3.57-3.17-6.48-6.8-8.72-10.9-2.25-4.09-3.9-8.38-4.95-12.88-14.53-56.53-25.43-99.2-32.69-127.99-7.27-28.79-10.9-44.25-10.9-46.36,0-2.38,1.19-4.49,3.57-6.34,2.38-1.85,5.41-2.77,9.11-2.77,11.36,0,21.13.46,29.32,1.39,8.19.93,14.99,2.58,20.41,4.95,5.41,2.38,9.57,5.68,12.48,9.91,2.9,4.23,4.75,9.78,5.55,16.64.26,3.7.79,11.23,1.58,22.59.79,11.36,1.65,24.24,2.58,38.64.92,14.4,1.85,29,2.77,43.79.92,14.8,1.78,27.34,2.58,37.64,3.17-16.38,5.75-29.45,7.73-39.23,1.98-9.77,3.63-17.96,4.95-24.57,1.32-6.6,2.44-12.41,3.37-17.44.92-5.02,2.04-10.96,3.37-17.83,1.32-6.87,2.84-15.45,4.56-25.76,1.72-10.3,4.16-24.04,7.33-41.21,1.05-6.34,8.06-9.51,21-9.51,8.19,0,15.85.27,22.98.79,7.13.53,13.47,1.78,19.02,3.76,5.55,1.98,10.3,4.89,14.27,8.72,3.96,3.83,6.74,9.05,8.32,15.65.53,1.85.99,3.7,1.39,5.55.4,1.85.85,4.5,1.39,7.92.53,3.44,1.12,8.19,1.78,14.27.66,6.08,1.45,14.27,2.38,24.57.92,10.3,2.04,23.12,3.37,38.44,1.32,15.32,3.03,33.95,5.15,55.87Z"/>
    <path class="cls-10" d="M1749.84,523.08c0-5.81.46-13.41,1.39-22.79.92-9.37,1.85-19.28,2.77-29.72.92-10.43,1.85-20.54,2.77-30.31.92-9.77,1.39-17.96,1.39-24.57s-1.65-13.01-4.95-18.43c-3.31-5.41-9.71-8.12-19.22-8.12s-16.91,2.25-22.98,6.74c-6.08,4.5-11.16,12.68-15.26,24.57-4.1,11.89-7.47,28.27-10.11,49.14-2.64,20.87-5.15,47.69-7.53,80.44-.27,3.17-.93,5.29-1.98,6.34-1.06,1.06-3.31,1.59-6.74,1.59h-14.27c-8.19,0-14.86-.85-20.01-2.58-5.15-1.72-9.25-4.16-12.28-7.33-3.04-3.17-5.15-7.06-6.34-11.69-1.19-4.62-1.78-9.97-1.78-16.05,0-3.96.2-9.57.59-16.84.4-7.26,1.12-17.3,2.18-30.12,1.05-12.81,2.31-29.06,3.76-48.74,1.45-19.68,3.23-44.05,5.35-73.11.26-5.81.92-9.24,1.98-10.3.79-.79,2.9-1.19,6.34-1.19h15.45c7.92,0,14.46.93,19.61,2.77,5.15,1.85,9.31,4.3,12.48,7.33,3.17,3.04,5.41,6.61,6.74,10.7,1.32,4.1,2.11,8.26,2.38,12.48,8.19-14,17.57-23.71,28.14-29.13,10.56-5.41,23.78-8.12,39.63-8.12,11.1,0,20.74,1.19,28.93,3.57,8.19,2.38,14.99,6.41,20.41,12.09,5.41,5.68,9.44,13.08,12.09,22.19,2.64,9.11,3.96,20.41,3.96,33.88,0,4.23-.27,10.3-.79,18.23-.53,7.93-1.19,16.58-1.98,25.96-.79,9.38-1.65,19.16-2.58,29.32-.93,10.17-1.78,19.61-2.58,28.33-.79,8.72-1.46,16.38-1.98,22.98-.53,6.61-.79,10.97-.79,13.08,0,5.81-.66,9.31-1.98,10.5-1.33,1.19-4.23,1.78-8.72,1.78h-12.68c-8.46,0-15.32-.79-20.61-2.38-5.29-1.59-9.38-3.83-12.28-6.74-2.91-2.9-4.95-6.54-6.14-10.9-1.19-4.36-1.78-9.31-1.78-14.86Z"/>
    <path class="cls-8" d="M1905.96,561.52c-16.38,0-28.13-4.36-35.27-13.08s-10.7-23.11-10.7-43.19c0-3.17.2-7.13.59-11.89.4-4.75.92-10.9,1.59-18.43.66-7.53,1.52-16.84,2.58-27.94,1.05-11.1,2.18-24.57,3.37-40.42,1.19-15.85,2.51-34.48,3.96-55.87,1.45-21.4,2.97-46.23,4.56-74.5.26-5.81.92-9.24,1.98-10.3.79-.79,2.9-1.19,6.34-1.19h15.45c7.93,0,14.53.93,19.81,2.77,5.28,1.85,9.51,4.36,12.68,7.53s5.41,6.8,6.74,10.9c1.32,4.1,1.98,8.39,1.98,12.88,0,5.29-.34,12.88-.99,22.79-.66,9.91-1.52,21.07-2.58,33.48-1.06,12.42-2.12,25.36-3.17,38.83-1.06,13.47-2.12,26.35-3.17,38.64-1.06,12.28-1.92,23.32-2.58,33.09-.66,9.78-.99,17.18-.99,22.19,0,6.87,1.25,11.76,3.76,14.66,2.51,2.91,5.21,4.95,8.12,6.14,2.9,1.19,5.61,1.98,8.12,2.38,2.51.4,3.76,1.26,3.76,2.58,0,5.81-.66,11.56-1.98,17.24-1.33,5.68-3.7,10.84-7.13,15.45-3.44,4.63-8.12,8.32-14.07,11.1-5.94,2.77-13.54,4.16-22.79,4.16Z"/>
    <path class="cls-11" d="M2068.43,561.92c-18.23,0-33.35-2.58-45.37-7.73-12.02-5.15-21.6-12.22-28.73-21.2-7.13-8.98-12.15-19.48-15.06-31.5-2.91-12.02-4.36-24.9-4.36-38.64,0-15.85,1.91-31.37,5.75-46.56,3.83-15.19,10.37-28.73,19.62-40.62,9.24-11.89,21.46-21.46,36.65-28.73,15.19-7.26,34.14-10.9,56.87-10.9,33.29,0,57.12,8.12,71.53,24.37,14.4,16.25,21.6,39.03,21.6,68.36,0,8.19-.59,17.24-1.78,27.14-1.19,9.91-3.44,19.75-6.74,29.52-3.31,9.78-7.8,19.29-13.47,28.53-5.68,9.25-12.88,17.44-21.6,24.57-8.72,7.13-19.22,12.82-31.5,17.04-12.28,4.22-26.75,6.34-43.39,6.34ZM2087.05,388.75c-10.04,0-18.03,2.58-23.97,7.73-5.94,5.15-10.44,11.36-13.47,18.62-3.04,7.27-5.02,14.93-5.94,22.98-.93,8.06-1.39,14.86-1.39,20.41,0,17.44,2.77,30.25,8.32,38.44,5.55,8.19,13.47,12.28,23.78,12.28,9.24,0,16.84-2.9,22.79-8.72,5.94-5.81,10.56-12.81,13.87-21,3.3-8.19,5.55-16.77,6.74-25.76,1.19-8.98,1.78-16.51,1.78-22.59,0-13.21-2.45-23.58-7.33-31.11-4.89-7.53-13.28-11.29-25.16-11.29Z"/>
    <path class="cls-7" d="M2204.74,509.21c0-23.78,10.7-42.4,32.1-55.87,21.4-13.47,52.96-20.74,94.71-21.79.26-2.9.46-5.35.59-7.33.13-1.98.2-4.42.2-7.33,0-8.45-1.58-15.19-4.75-20.21-3.17-5.02-9.78-7.53-19.81-7.53-5.55,0-10.04.79-13.47,2.38-3.44,1.59-6.21,3.76-8.32,6.54-2.12,2.77-3.83,6.14-5.15,10.11-1.33,3.96-2.51,8.32-3.57,13.08-.53,2.38-1.72,3.9-3.57,4.56-1.85.66-4.76.99-8.72.99-26.95,0-40.42-10.17-40.42-30.51,0-8.19,1.91-15.98,5.75-23.38,3.83-7.39,9.51-13.8,17.04-19.22,7.53-5.41,16.97-9.71,28.33-12.88,11.36-3.17,24.57-4.76,39.63-4.76,29.32,0,50.59,6.08,63.8,18.23,13.21,12.15,19.81,29.32,19.81,51.52,0,2.91-.33,8.12-.99,15.65-.66,7.53-1.46,15.45-2.38,23.78-.93,8.32-1.72,16.18-2.38,23.58-.66,7.4-.99,12.55-.99,15.45,0,6.61,1.19,11.29,3.57,14.07,2.38,2.77,5.08,4.69,8.12,5.75,3.03,1.06,5.75,1.85,8.12,2.38,2.38.53,3.57,1.85,3.57,3.96,0,5.81-.79,11.76-2.38,17.83-1.58,6.08-4.16,11.63-7.73,16.64-3.57,5.02-8.46,9.11-14.66,12.28-6.21,3.17-13.81,4.76-22.79,4.76-12.68,0-22.19-3.04-28.53-9.11-6.34-6.07-10.57-14.53-12.68-25.36-6.34,9.25-14.6,17.31-24.77,24.17-10.17,6.87-23.45,10.3-39.82,10.3-7.93,0-15.39-.93-22.39-2.77-7-1.85-13.08-4.89-18.23-9.11-5.15-4.22-9.25-9.71-12.28-16.44-3.04-6.74-4.56-14.86-4.56-24.37ZM2327.98,464.04c-6.87,0-13.61.53-20.21,1.59-6.61,1.06-12.48,2.71-17.63,4.95-5.15,2.25-9.31,5.22-12.48,8.92-3.17,3.7-4.76,8.19-4.76,13.47,0,6.08,1.91,10.3,5.75,12.68,3.83,2.38,7.99,3.57,12.48,3.57,4.22,0,8.45-.92,12.68-2.77,4.22-1.85,7.99-4.69,11.29-8.52,3.3-3.83,6.14-8.52,8.52-14.07,2.38-5.55,3.83-12.15,4.36-19.81Z"/>
    <path class="cls-6" d="M2512.24,561.92c-10.3,0-20.15-1.85-29.52-5.55-9.38-3.7-17.57-9.51-24.57-17.44-7-7.93-12.55-17.96-16.64-30.12-4.1-12.15-6.14-26.81-6.14-43.99,0-7.66.53-16.18,1.59-25.56,1.05-9.37,2.9-18.82,5.55-28.33,2.64-9.51,6.34-18.76,11.1-27.74,4.75-8.98,10.76-16.97,18.03-23.97,7.26-7,15.98-12.61,26.15-16.84,10.17-4.22,22.12-6.34,35.86-6.34s23.84,2.32,31.9,6.93c8.06,4.63,13.14,12.62,15.26,23.97.53-10.3,1.05-19.28,1.59-26.95.53-7.66.99-14.79,1.39-21.4.4-6.6.85-13.21,1.39-19.81.53-6.6,1.05-14.13,1.59-22.59.26-5.81.92-9.24,1.98-10.3.53-.53,1.19-.85,1.98-.99.79-.13,2.24-.2,4.36-.2h15.45c7.92,0,14.53.93,19.81,2.77,5.28,1.85,9.51,4.36,12.68,7.53s5.41,6.8,6.74,10.9c1.32,4.1,1.98,8.39,1.98,12.88-1.06,13.21-1.98,25.3-2.77,36.26-.79,10.97-1.72,23.45-2.77,37.45-1.06,14.01-2.12,28.47-3.17,43.39-1.06,14.93-2.12,29.72-3.17,44.38-1.06,14.66-2.12,28.14-3.17,40.42-1.06,12.28-1.92,22.85-2.58,31.7-.66,8.85-1.13,14.73-1.39,17.63-.53,3.17-1.19,5.29-1.98,6.34-.79,1.06-3.04,1.59-6.74,1.59h-14.27c-5.55,0-10.77-.46-15.65-1.39-4.89-.92-9.11-2.51-12.68-4.76-3.57-2.24-6.34-5.28-8.32-9.11-1.98-3.83-2.97-8.78-2.97-14.86-4.75,10.04-11.96,18.23-21.6,24.57-9.65,6.34-21.73,9.51-36.26,9.51ZM2546.72,388.75c-13.47,0-23.45,5.88-29.92,17.63-6.48,11.76-9.71,27.54-9.71,47.35,0,6.87.46,13.61,1.39,20.21.92,6.61,2.58,12.55,4.95,17.83,2.38,5.29,5.61,9.51,9.71,12.68,4.09,3.17,9.31,4.75,15.65,4.75,11.36,0,20.87-5.55,28.53-16.64,7.66-11.1,11.49-28.53,11.49-52.31,0-6.6-.4-13.01-1.19-19.22-.79-6.2-2.38-11.69-4.75-16.44-2.38-4.76-5.68-8.58-9.91-11.49-4.23-2.9-9.65-4.36-16.25-4.36Z"/>
  </g>
  <path class="cls-1" d="M426.16,503.22c-3.35,0-6.5-.52-9.43-1.56-2.93-1.04-5.66-2.83-8.17-5.36l-90.53-90.53c-5.03-5.03-7.44-10.9-7.24-17.6.2-6.71,2.62-12.57,7.24-17.6,5.03-5.03,11.01-7.65,17.93-7.85,6.92-.2,12.89,2.2,17.91,7.22l47.15,47.15v-179.81c0-7.13,2.41-13.09,7.24-17.91,4.83-4.81,10.8-7.23,17.91-7.24,7.11-.02,13.09,2.4,17.93,7.24,4.85,4.85,7.25,10.81,7.22,17.91v179.81l47.15-47.15c5.03-5.03,11.01-7.44,17.93-7.24,6.92.2,12.89,2.83,17.91,7.87,4.61,5.03,7.02,10.9,7.24,17.6.22,6.71-2.2,12.57-7.24,17.6l-90.53,90.53c-2.51,2.51-5.24,4.3-8.17,5.36-2.93,1.06-6.08,1.58-9.43,1.56M275.27,614.5c-13.83,0-25.67-4.92-35.51-14.76-9.84-9.84-14.77-21.69-14.79-35.53v-50.3c0-7.13,2.41-13.09,7.24-17.91,4.83-4.81,10.8-7.23,17.91-7.24,7.11-.02,13.09,2.4,17.93,7.24,4.85,4.85,7.25,10.81,7.22,17.91v50.3h301.78v-50.3c0-7.13,2.41-13.09,7.24-17.91,4.83-4.81,10.8-7.23,17.91-7.24,7.11-.02,13.09,2.4,17.93,7.24,4.85,4.85,7.25,10.81,7.22,17.91v50.3c0,13.83-4.92,25.68-14.76,35.53-9.84,9.86-21.69,14.78-35.53,14.76h-301.78Z"/>
</svg>