<?xml version="1.0" encoding="UTF-8"?>
<svg id="Ebene_13" xmlns="http://www.w3.org/2000/svg" xmlns:xlink="http://www.w3.org/1999/xlink" viewBox="0 0 1280 640">
  <defs>
    <style>
      .cls-1 {
        letter-spacing: 0em;
      }

      .cls-2 {
        letter-spacing: -.01em;
      }

      .cls-3 {
        letter-spacing: -.02em;
      }

      .cls-4 {
        fill: url(#Unbenannter_Verlauf_23-7);
      }

      .cls-5 {
        fill: url(#Unbenannter_Verlauf_23-3);
      }

      .cls-6 {
        filter: url(#drop-shadow-5);
      }

      .cls-7 {
        fill: url(#Unbenannter_Verlauf_23-6);
      }

      .cls-8, .cls-9 {
        fill: #1b1f3a;
      }

      .cls-10 {
        fill: url(#Unbenannter_Verlauf_23-5);
      }

      .cls-11 {
        letter-spacing: -.02em;
      }

      .cls-12 {
        letter-spacing: 0em;
      }

      .cls-13 {
        fill: #1b1f3a;
      }

      .cls-9 {
        font-family: Assistant-SemiBold, Assistant;
        font-size: 74.04px;
        font-weight: 600;
      }

      .cls-14 {
        fill: url(#Unbenannter_Verlauf_23-9);
      }

      .cls-15 {
        fill: url(#Unbenannter_Verlauf_23-4);
      }

      .cls-16 {
        fill: url(#Unbenannter_Verlauf_23-11);
      }

      .cls-17 {
        fill: url(#Unbenannter_Verlauf_23-2);
      }

      .cls-18 {
        fill: url(#Unbenannter_Verlauf_23-10);
      }

      .cls-19 {
        fill: url(#Unbenannter_Verlauf_23);
      }

      .cls-20 {
        letter-spacing: -.07em;
      }

      .cls-21 {
        fill: url(#Unbenannter_Verlauf_23-8);
      }
    </style>
    <linearGradient id="Unbenannter_Verlauf_23" data-name="Unbenannter Verlauf 23" x1="0" y1="542.67" x2="1280" y2="542.67" gradientUnits="userSpaceOnUse">
      <stop offset=".24" stop-color="#5e43ff"/>
      <stop offset="1" stop-color="#8d8dff"/>
    </linearGradient>
    <linearGradient id="Unbenannter_Verlauf_23-2" data-name="Unbenannter Verlauf 23" x1="437.86" y1="244.34" x2="1255.13" y2="244.34" xlink:href="#Unbenannter_Verlauf_23"/>
    <linearGradient id="Unbenannter_Verlauf_23-3" data-name="Unbenannter Verlauf 23" x1="58.2" y1="369.59" x2="363.54" y2="84.49" xlink:href="#Unbenannter_Verlauf_23"/>
    <linearGradient id="Unbenannter_Verlauf_23-4" data-name="Unbenannter Verlauf 23" x1="39.89" y1="349.98" x2="345.23" y2="64.88" xlink:href="#Unbenannter_Verlauf_23"/>
    <filter id="drop-shadow-5" x="434.43" y="140.6" width="708" height="192.73" filterUnits="userSpaceOnUse">
      <feOffset dx="7" dy="7"/>
      <feGaussianBlur result="blur" stdDeviation="8"/>
      <feFlood flood-color="#000" flood-opacity=".3"/>
      <feComposite in2="blur" operator="in"/>
      <feComposite in="SourceGraphic"/>
    </filter>
    <linearGradient id="Unbenannter_Verlauf_23-5" data-name="Unbenannter Verlauf 23" x1="451.56" y1="236.05" x2="1110.46" y2="155.39" xlink:href="#Unbenannter_Verlauf_23"/>
    <linearGradient id="Unbenannter_Verlauf_23-6" data-name="Unbenannter Verlauf 23" x1="454.87" y1="263.09" x2="1113.77" y2="182.43" xlink:href="#Unbenannter_Verlauf_23"/>
    <linearGradient id="Unbenannter_Verlauf_23-7" data-name="Unbenannter Verlauf 23" x1="453.87" y1="254.93" x2="1112.77" y2="174.27" xlink:href="#Unbenannter_Verlauf_23"/>
    <linearGradient id="Unbenannter_Verlauf_23-8" data-name="Unbenannter Verlauf 23" x1="457.12" y1="281.47" x2="1116.02" y2="200.81" xlink:href="#Unbenannter_Verlauf_23"/>
    <linearGradient id="Unbenannter_Verlauf_23-9" data-name="Unbenannter Verlauf 23" x1="457.5" y1="284.63" x2="1116.41" y2="203.97" xlink:href="#Unbenannter_Verlauf_23"/>
    <linearGradient id="Unbenannter_Verlauf_23-10" data-name="Unbenannter Verlauf 23" x1="460.93" y1="312.62" x2="1119.83" y2="231.96" xlink:href="#Unbenannter_Verlauf_23"/>
    <linearGradient id="Unbenannter_Verlauf_23-11" data-name="Unbenannter Verlauf 23" x1="460.53" y1="309.38" x2="1119.44" y2="228.71" xlink:href="#Unbenannter_Verlauf_23"/>
  </defs>
  <rect class="cls-8" y="0" width="1280" height="447.56"/>
  <rect class="cls-19" y="444" width="1280" height="197.33"/>
  <path class="cls-17" d="M1255.13,244.35c0,37.42-13.32,71.3-34.86,95.82-21.53,24.52-51.29,39.69-84.15,39.69H498.06c-9.48,0-18.4-4.45-24.09-12.02l-36.11-48.02h683.03V108.83h15.22c65.73,0,119.01,60.67,119.01,135.52Z"/>
  <path class="cls-13" d="M1118.62,359.42H83.47l-31.84-250.59h1066.99c65.73,0,119.01,56.1,119.01,125.29h0c0,69.2-53.28,125.29-119.01,125.29Z"/>
  <g>
    <path class="cls-5" d="M372.34,87.64H35.55c-3.9,0-6.02,6.39-4.05,10.9h0s38.89,231.54,38.89,231.54c-2.4,1.37-4.55,3.16-6.36,5.32l-31.27,37.57c-2.53,3.04-.35,7.64,3.64,7.64h334.15c3.98,0,6.17-4.59,3.64-7.64l-31.27-37.57c-1.58-1.91-3.45-3.52-5.51-4.81l38.97-232.05c1.97-4.51-.15-10.9-4.05-10.9ZM341.11,151.04c-.77,16.31-3.59,38.24-6.48,49.77-4.38,17.52-10.94,37.17-14.99,48.73-.12,5.19-.67,10.32-1.63,15.36v62.11h-39.8c-20.61,15.55-46.41,24.14-73.64,24.38h-.27c-27.23-.23-53.04-8.83-73.64-24.38h-40.78v-68.41c-.37-2.99-.58-6.02-.65-9.06-4.04-11.56-10.61-31.21-14.99-48.73-2.8-11.17-5.52-32.07-6.39-48.19-.4-7.31-.42-13.63.12-17.63.4-3.01,1.15-8.62,4.1-13.87.13-.23.26-.45.39-.67,4.45-7.4,12.05-11.62,20.96-11.62,5.89,0,12.39,1.82,19.88,5.56,17.86,8.94,42.74,27.73,58.48,40.45,2.88,2.33,5.44,4.44,7.61,6.27,8-1.1,16.36-1.69,24.93-1.75h.24c8.57.06,16.93.65,24.93,1.75,2.17-1.82,4.74-3.94,7.61-6.27,15.74-12.72,40.62-31.51,58.48-40.45,7.49-3.74,13.99-5.56,19.88-5.56,8.66,0,16.08,3.99,20.58,11.01.27.42.52.84.77,1.28,2.59,4.61,3.5,9.39,4.1,13.87.49,3.71.51,9.41.2,16.05Z"/>
    <path class="cls-15" d="M324.22,131.91c-1.1-3.85-3.36-7.24-8.77-7.24-3.1,0-7.24,1.11-12.79,3.89-11.63,5.82-26.71,16.33-39.88,26.29-13.32,10.08-24.68,19.58-28.53,23.07-9.42-1.73-19.44-2.64-29.83-2.72-10.39.08-20.41.98-29.83,2.72-3.84-3.49-15.2-12.99-28.53-23.07-13.17-9.95-28.25-20.47-39.88-26.29-5.55-2.78-9.69-3.89-12.79-3.89-5.78,0-7.95,3.87-8.98,8.03-.37,1.48-.58,2.99-.77,4.39-.46,3.46-.35,10.02.18,17.76.94,14.03,3.21,31.92,5.76,42.13.09.37.18.73.28,1.1,4.74,18.65,12.05,39.9,15.17,48.72,0,.14,0,.28,0,.42,0,35.21,23.4,65.61,57.26,79.81,12.79,5.36,27.06,8.41,42.14,8.54,15.07-.13,29.35-3.18,42.14-8.54,33.86-14.2,57.26-44.6,57.26-79.81,0-.14,0-.28,0-.42,2.91-8.23,9.47-27.3,14.19-44.97.44-1.63.86-3.25,1.26-4.85,2.55-10.21,4.82-28.09,5.76-42.13.52-7.74.64-14.3.18-17.76-.22-1.64-.49-3.45-.99-5.17ZM118.31,217.27c-13.99,10.49-22.97-39.67-24.87-62.42-.25-3-.38-5.52-.38-7.37,0-8.47,2.13-14.47,7.92-11.88,5.35,2.4,12.97,10.27,20.05,19.25,11.76,14.93,22.05,32.95,18.07,34.21-9.59,3-8.95,19.34-20.79,28.21ZM155.93,271.71c-13.39,0-24.25-10.86-24.25-24.25,0-4.16,1.04-8.07,2.89-11.49,1.94,4.99,6.78,8.52,12.45,8.52,7.38,0,13.36-5.98,13.36-13.36,0-2.94-.95-5.64-2.55-7.85,12.5.97,22.35,11.43,22.35,24.18,0,13.39-10.86,24.25-24.25,24.25ZM226.71,289.28c-2.91,2.18-6.33,3.3-9.76,3.3-2.4,0-4.81-.55-7.03-1.66-2.22-1.11-4.06-2.69-5.48-4.6-1.42,1.91-3.27,3.49-5.48,4.6-2.23,1.11-4.63,1.66-7.03,1.66-3.43,0-6.85-1.11-9.76-3.3-1.64-1.23-1.98-3.56-.74-5.2,1.23-1.64,3.55-1.97,5.2-.74,2.68,2.01,6.14,2.37,9.02.93,2.88-1.44,4.55-4.34,4.59-7.97-.35-.16-.68-.33-1-.49s-.62-.33-.92-.49c-.14-.08-.29-.16-.43-.24-.56-.33-1.07-.65-1.53-.97-.23-.16-.45-.32-.65-.48-.42-.32-.78-.64-1.1-.95-.16-.16-.31-.31-.45-.47-.08-.08-.14-.15-.2-.23-.08-.09-.15-.19-.23-.28-.1-.14-.2-.28-.29-.41-.1-.15-.18-.3-.27-.45h0c-.2-.39-.34-.75-.42-1.11-.02-.07-.03-.14-.04-.22-.03-.14-.04-.29-.05-.43-.07-1.28.53-2.44,1.57-3.43,2.16-2.05,6.16-3.36,9.72-3.36s7.56,1.3,9.72,3.36c1.03.98,1.64,2.14,1.57,3.42,0,.05,0,.11-.01.17,0,.01,0,.03,0,.04,0,.06,0,.12-.02.18-.01.13-.04.27-.09.41-.02.07-.04.13-.06.2s-.04.14-.07.21c-.02.07-.05.14-.08.21-.02.07-.06.14-.1.21-.1.21-.23.43-.37.64-.09.14-.2.29-.31.43-.05.07-.11.14-.18.22-.31.37-.67.73-1.09,1.1-.08.07-.17.15-.26.22-.18.15-.37.3-.57.45-.3.22-.62.45-.97.68-.23.15-.48.3-.73.46-.12.08-.25.15-.39.23-.13.08-.27.15-.41.23-.14.08-.28.16-.43.23-.14.08-.29.15-.44.23h0c.01.12.01.23.01.34,0,3.69,1.67,6.65,4.59,8.11,2.88,1.44,6.34,1.08,9.02-.93,1.64-1.23,3.97-.9,5.2.74,1.23,1.64.9,3.96-.74,5.2ZM254.92,271.71c-13.39,0-24.25-10.86-24.25-24.25,0-4.16,1.04-8.07,2.89-11.49,1.94,4.99,6.78,8.52,12.45,8.52,7.38,0,13.36-5.98,13.36-13.36,0-2.94-.95-5.64-2.55-7.85,12.5.97,22.35,11.43,22.35,24.18,0,13.39-10.86,24.25-24.25,24.25ZM315.19,154.85c-1.9,22.75-10.87,72.91-24.87,62.42-11.83-8.87-11.2-25.21-20.79-28.21-3.98-1.25,6.31-19.28,18.07-34.21,7.08-8.98,14.69-16.85,20.05-19.25,5.79-2.59,7.92,3.41,7.92,11.88,0,1.85-.13,4.37-.38,7.37Z"/>
  </g>
  <g class="cls-6">
    <g>
      <path class="cls-10" d="M515.19,192.66l-6.94,101.39c-.12,1.83-.79,2.74-2.01,2.74h-10.05c-6.82,0-11.69-1.34-14.61-4.02-2.92-2.68-4.38-6.51-4.38-11.51,0-1.83.09-4.57.27-8.22s.46-7.95.82-12.88c.37-4.93.76-10.29,1.19-16.08.43-5.78.88-11.63,1.37-17.54.49-5.91.94-11.78,1.37-17.63.43-5.85.82-11.26,1.19-16.26h-29.23c-1.34,0-2.01-.85-2.01-2.56l.55-10.23c.12-1.58.39-3.13.82-4.66.43-1.52,1.12-2.89,2.1-4.11.97-1.22,2.22-2.19,3.74-2.92,1.52-.73,3.38-1.1,5.57-1.1h81.66c.73,0,1.4.18,2.01.55.61.37.91,1.04.91,2.01l-.73,10.78c-.25,3.65-1.25,6.61-3.01,8.86-1.77,2.25-5.39,3.38-10.87,3.38h-19.73Z"/>
      <path class="cls-7" d="M585.34,298.62c-5.36,0-10.69-.67-15.98-2.01-5.3-1.34-10.05-3.65-14.25-6.94-4.2-3.29-7.64-7.67-10.32-13.15-2.68-5.48-4.02-12.36-4.02-20.64,0-3.04.24-6.7.73-10.96.49-4.26,1.43-8.65,2.83-13.15,1.4-4.5,3.35-8.98,5.85-13.43,2.49-4.44,5.75-8.43,9.77-11.97,4.02-3.53,8.89-6.39,14.61-8.59,5.72-2.19,12.54-3.29,20.46-3.29,6.33,0,11.69.73,16.08,2.19,4.38,1.46,7.92,3.44,10.6,5.94,2.68,2.5,4.63,5.39,5.85,8.68,1.22,3.29,1.83,6.82,1.83,10.6,0,5.6-1.13,10.35-3.38,14.25-2.25,3.9-5.18,7.16-8.77,9.77-3.59,2.62-7.58,4.66-11.97,6.12-4.38,1.46-8.71,2.59-12.97,3.38-4.26.79-8.19,1.28-11.78,1.46-3.59.18-6.37.27-8.31.27,0,2.32.33,4.6,1,6.85.67,2.25,1.67,4.23,3.01,5.94,1.34,1.71,3.11,3.11,5.3,4.2,2.19,1.1,4.87,1.64,8.04,1.64s5.63-.52,7.4-1.55c1.76-1.03,3.2-2.19,4.29-3.47,1.1-1.28,2.04-2.43,2.83-3.47.79-1.03,1.86-1.55,3.2-1.55.61,0,1.67.15,3.2.46,1.52.31,3.07.94,4.66,1.92,1.58.98,2.98,2.31,4.2,4.02,1.22,1.71,1.83,3.9,1.83,6.58,0,3.53-1.1,6.58-3.29,9.13-2.19,2.56-5.02,4.63-8.49,6.21-3.47,1.58-7.34,2.74-11.6,3.47-4.26.73-8.4,1.1-12.42,1.1ZM588.81,218.79c-2.68,0-4.96.76-6.85,2.28-1.89,1.52-3.47,3.44-4.75,5.75-1.28,2.32-2.25,4.87-2.92,7.67-.67,2.8-1.19,5.48-1.55,8.04,7.55-.12,13.67-1.4,18.36-3.84,4.69-2.43,7.03-5.91,7.03-10.41,0-2.43-.76-4.63-2.28-6.58-1.52-1.95-3.87-2.92-7.03-2.92Z"/>
      <path class="cls-4" d="M661.51,298.44c-7.55,0-12.97-2.01-16.26-6.03-3.29-4.02-4.93-10.66-4.93-19.91,0-1.46.09-3.29.27-5.48.18-2.19.43-5.02.73-8.49.3-3.47.7-7.76,1.19-12.88.49-5.12,1-11.33,1.55-18.63.55-7.31,1.16-15.89,1.83-25.76.67-9.86,1.37-21.31,2.1-34.34.12-2.68.43-4.26.91-4.75.37-.37,1.34-.55,2.92-.55h7.12c3.65,0,6.7.43,9.13,1.28,2.43.85,4.38,2.01,5.85,3.47,1.46,1.46,2.49,3.14,3.11,5.02.61,1.89.91,3.87.91,5.94,0,2.44-.15,5.94-.46,10.5-.31,4.57-.7,9.71-1.19,15.44-.49,5.73-.98,11.69-1.46,17.9-.49,6.21-.98,12.15-1.46,17.81-.49,5.66-.89,10.75-1.19,15.25-.31,4.51-.46,7.92-.46,10.23,0,3.17.58,5.42,1.74,6.76,1.16,1.34,2.4,2.28,3.74,2.83,1.34.55,2.59.91,3.74,1.1,1.16.18,1.74.58,1.74,1.19,0,2.68-.31,5.33-.91,7.95-.61,2.62-1.71,5-3.29,7.12-1.58,2.13-3.74,3.84-6.49,5.12-2.74,1.28-6.24,1.92-10.5,1.92Z"/>
      <path class="cls-21" d="M737.69,298.62c-5.36,0-10.69-.67-15.98-2.01-5.3-1.34-10.05-3.65-14.25-6.94-4.2-3.29-7.64-7.67-10.32-13.15-2.68-5.48-4.02-12.36-4.02-20.64,0-3.04.24-6.7.73-10.96.49-4.26,1.43-8.65,2.83-13.15,1.4-4.5,3.35-8.98,5.85-13.43,2.49-4.44,5.75-8.43,9.77-11.97,4.02-3.53,8.89-6.39,14.61-8.59,5.72-2.19,12.54-3.29,20.46-3.29,6.33,0,11.69.73,16.08,2.19,4.38,1.46,7.92,3.44,10.6,5.94,2.68,2.5,4.63,5.39,5.85,8.68,1.22,3.29,1.83,6.82,1.83,10.6,0,5.6-1.13,10.35-3.38,14.25-2.25,3.9-5.18,7.16-8.77,9.77-3.59,2.62-7.58,4.66-11.97,6.12-4.38,1.46-8.71,2.59-12.97,3.38-4.26.79-8.19,1.28-11.78,1.46-3.59.18-6.37.27-8.31.27,0,2.32.33,4.6,1,6.85.67,2.25,1.67,4.23,3.01,5.94,1.34,1.71,3.11,3.11,5.3,4.2,2.19,1.1,4.87,1.64,8.04,1.64s5.63-.52,7.4-1.55c1.76-1.03,3.2-2.19,4.29-3.47,1.1-1.28,2.04-2.43,2.83-3.47.79-1.03,1.86-1.55,3.2-1.55.61,0,1.67.15,3.2.46,1.52.31,3.07.94,4.66,1.92,1.58.98,2.98,2.31,4.2,4.02,1.22,1.71,1.83,3.9,1.83,6.58,0,3.53-1.1,6.58-3.29,9.13-2.19,2.56-5.02,4.63-8.49,6.21-3.47,1.58-7.34,2.74-11.6,3.47-4.26.73-8.4,1.1-12.42,1.1ZM741.16,218.79c-2.68,0-4.96.76-6.85,2.28-1.89,1.52-3.47,3.44-4.75,5.75-1.28,2.32-2.25,4.87-2.92,7.67-.67,2.8-1.19,5.48-1.55,8.04,7.55-.12,13.67-1.4,18.36-3.84,4.69-2.43,7.03-5.91,7.03-10.41,0-2.43-.76-4.63-2.28-6.58-1.52-1.95-3.87-2.92-7.03-2.92Z"/>
      <path class="cls-14" d="M888.58,270.12c4.99,0,9.23-.73,12.7-2.19,3.47-1.46,6.42-3.11,8.86-4.93,2.43-1.83,4.6-3.47,6.49-4.93,1.89-1.46,3.81-2.19,5.75-2.19,2.43,0,3.65,1.83,3.65,5.48,0,1.95-.25,4.29-.73,7.03-.49,2.74-1.16,5.82-2.01,9.23-.49,2.07-1.68,4.32-3.56,6.76-1.89,2.44-4.48,4.72-7.76,6.85-3.29,2.13-7.34,3.9-12.15,5.3-4.81,1.4-10.32,2.1-16.53,2.1s-12.42-.91-18.63-2.74c-6.21-1.83-11.75-4.93-16.62-9.32-4.87-4.38-8.83-10.29-11.87-17.72-3.05-7.43-4.57-16.74-4.57-27.95,0-4.02.27-8.68.82-13.98.55-5.3,1.61-10.75,3.2-16.35,1.58-5.6,3.81-11.11,6.67-16.53,2.86-5.42,6.54-10.26,11.05-14.52,4.5-4.26,10.02-7.7,16.53-10.32,6.51-2.62,14.28-3.93,23.29-3.93,7.18,0,13.43.85,18.72,2.56,5.3,1.71,9.68,4.05,13.15,7.03,3.47,2.99,6.03,6.49,7.67,10.5,1.64,4.02,2.47,8.28,2.47,12.79,0,7.8-2.28,13.49-6.85,17.08-4.57,3.59-11.05,5.39-19.46,5.39-2.68,0-4.36-.21-5.02-.64-.67-.43-1-1.31-1-2.65-.12-4.14-.25-7.73-.37-10.78-.12-3.04-.55-5.57-1.28-7.58-.73-2.01-1.86-3.47-3.38-4.38-1.52-.91-3.62-1.37-6.3-1.37-3.9,0-7.22.82-9.96,2.47s-5.06,3.78-6.94,6.39c-1.89,2.62-3.41,5.57-4.57,8.86-1.16,3.29-2.07,6.64-2.74,10.05-.67,3.41-1.1,6.7-1.28,9.86-.18,3.17-.27,5.91-.27,8.22,0,11.21,1.86,19.18,5.57,23.93,3.71,4.75,9.47,7.12,17.26,7.12Z"/>
      <path class="cls-18" d="M939.18,274.32c0-10.96,4.93-19.55,14.8-25.76,9.86-6.21,24.42-9.56,43.66-10.05.12-1.34.21-2.47.27-3.38.06-.91.09-2.04.09-3.38,0-3.9-.73-7-2.19-9.32-1.46-2.31-4.51-3.47-9.13-3.47-2.56,0-4.63.37-6.21,1.1-1.58.73-2.86,1.74-3.84,3.01-.98,1.28-1.77,2.83-2.37,4.66-.61,1.83-1.16,3.84-1.64,6.03-.25,1.1-.79,1.8-1.64,2.1-.85.31-2.19.46-4.02.46-12.42,0-18.63-4.69-18.63-14.07,0-3.77.88-7.37,2.65-10.78,1.76-3.41,4.38-6.36,7.86-8.86,3.47-2.49,7.82-4.48,13.06-5.94,5.23-1.46,11.33-2.19,18.27-2.19,13.52,0,23.32,2.8,29.41,8.4,6.09,5.6,9.13,13.52,9.13,23.75,0,1.34-.15,3.74-.46,7.22-.31,3.47-.67,7.12-1.1,10.96-.43,3.84-.79,7.46-1.1,10.87-.31,3.41-.46,5.79-.46,7.12,0,3.05.55,5.21,1.64,6.49,1.1,1.28,2.34,2.16,3.74,2.65,1.4.49,2.65.85,3.74,1.1,1.1.25,1.64.85,1.64,1.83,0,2.68-.37,5.42-1.1,8.22-.73,2.8-1.92,5.36-3.56,7.67-1.64,2.32-3.9,4.2-6.76,5.66-2.86,1.46-6.37,2.19-10.5,2.19-5.85,0-10.23-1.4-13.15-4.2-2.92-2.8-4.87-6.7-5.85-11.69-2.92,4.26-6.73,7.98-11.42,11.14-4.69,3.17-10.81,4.75-18.36,4.75-3.65,0-7.1-.43-10.32-1.28-3.23-.85-6.03-2.25-8.4-4.2-2.37-1.95-4.26-4.48-5.66-7.58-1.4-3.11-2.1-6.85-2.1-11.24ZM996,253.5c-3.17,0-6.27.25-9.32.73-3.05.49-5.75,1.25-8.13,2.28-2.37,1.04-4.29,2.41-5.75,4.11-1.46,1.71-2.19,3.78-2.19,6.21,0,2.8.88,4.75,2.65,5.85,1.76,1.1,3.68,1.64,5.75,1.64,1.95,0,3.9-.43,5.85-1.28,1.95-.85,3.68-2.16,5.21-3.93,1.52-1.76,2.83-3.93,3.93-6.49,1.1-2.56,1.76-5.6,2.01-9.13Z"/>
      <path class="cls-16" d="M1086.79,220.98c-.37,4.63-.76,9.2-1.19,13.7-.43,4.51-.82,8.77-1.19,12.79-.37,4.02-.64,7.61-.82,10.78-.18,3.17-.27,5.6-.27,7.31,0,3.17.37,5.27,1.1,6.3.73,1.04,1.95,1.55,3.65,1.55,1.34,0,2.49-.24,3.47-.73.97-.49,1.89-1.03,2.74-1.64.85-.61,1.61-1.16,2.28-1.64.67-.49,1.43-.73,2.28-.73s1.64.49,2.37,1.46c.73.98,1.1,3.23,1.1,6.76,0,6.7-1.83,12-5.48,15.89-3.65,3.9-9.93,5.85-18.82,5.85s-15.25-2.04-19.46-6.12c-4.2-4.08-6.3-10.32-6.3-18.72,0-1.83.09-3.99.27-6.49.18-2.49.46-5.75.82-9.77.37-4.02.82-8.95,1.37-14.8.55-5.85,1.12-13.09,1.74-21.74h-9.68c-.98,0-1.55-.21-1.74-.64-.18-.43-.27-1.06-.27-1.92l.55-9.32c.12-1.58.33-3.13.64-4.66.3-1.52.91-2.89,1.83-4.11.91-1.22,2.22-2.19,3.93-2.92,1.7-.73,3.96-1.1,6.76-1.1.85-2.19,1.83-4.81,2.92-7.86,1.1-3.04,2.19-6,3.29-8.86,1.1-2.86,2.16-5.27,3.2-7.22,1.03-1.95,1.98-2.92,2.83-2.92h5.3c5.11,0,8.65,1.58,10.6,4.75,1.95,3.17,2.92,6.94,2.92,11.33,0,2.44-.18,6.03-.55,10.78h19.18c1.95,0,2.92.85,2.92,2.56l-.73,9.86c-.25,3.65-1.25,6.61-3.01,8.86-1.77,2.25-5.39,3.38-10.87,3.38h-9.68Z"/>
    </g>
  </g>
  <text class="cls-9" transform="translate(141.66 557.62)"><tspan x="0" y="0">Open Sou</tspan><tspan class="cls-1" x="305.28" y="0">r</tspan><tspan class="cls-3" x="331.34" y="0">c</tspan><tspan x="363.62" y="0">e </tspan><tspan class="cls-20" x="415.6" y="0">T</tspan><tspan x="450.62" y="0">elep</tspan><tspan class="cls-1" x="585.97" y="0">r</tspan><tspan x="612.04" y="0">om</tspan><tspan class="cls-11" x="714.44" y="0">p</tspan><tspan class="cls-2" x="754.42" y="0">t</tspan><tspan class="cls-12" x="779.3" y="0">er App </tspan></text>
</svg>