<?xml version="1.0" encoding="UTF-8"?>
<svg id="Ebene_7" xmlns="http://www.w3.org/2000/svg" xmlns:xlink="http://www.w3.org/1999/xlink" viewBox="0 0 1080 1080">
  <defs>
    <style>
      .cls-1 {
        fill: url(#Unbenannter_Verlauf_113-2);
      }

      .cls-2 {
        fill: #1b1f3a;
      }

      .cls-3 {
        fill: url(#Unbenannter_Verlauf_113);
      }
    </style>
    <linearGradient id="Unbenannter_Verlauf_113" data-name="Unbenannter Verlauf 113" x1="168.98" y1="884.86" x2="946.27" y2="159.1" gradientUnits="userSpaceOnUse">
      <stop offset=".24" stop-color="#ff7844"/>
      <stop offset="1" stop-color="#ffcd5c"/>
    </linearGradient>
    <linearGradient id="Unbenannter_Verlauf_113-2" data-name="Unbenannter Verlauf 113" x1="122.36" y1="834.94" x2="899.65" y2="109.17" xlink:href="#Unbenannter_Verlauf_113"/>
  </defs>
  <rect class="cls-2" width="1080" height="1080"/>
  <g>
    <path class="cls-3" d="M968.68,167.11H111.32c-9.93,0-15.32,16.25-10.31,27.75h0s99,589.42,99,589.42c-6.1,3.48-11.59,8.04-16.18,13.55l-79.59,95.63c-6.45,7.75-.88,19.44,9.26,19.44h850.63c10.14,0,15.7-11.69,9.26-19.44l-79.59-95.63c-4.03-4.85-8.78-8.96-14.02-12.25l99.21-590.71c5.01-11.49-.38-27.76-10.31-27.76ZM889.17,328.5c-1.97,41.53-9.15,97.35-16.49,126.71-11.15,44.6-27.86,94.63-38.15,124.06-.32,13.2-1.7,26.26-4.16,39.11v158.11h-101.32c-52.45,39.59-118.15,61.46-187.46,62.06h-.68c-69.31-.59-135.01-22.47-187.46-62.06h-103.81v-174.16c-.93-7.62-1.47-15.32-1.66-23.06-10.29-29.43-27-79.46-38.15-124.06-7.12-28.43-14.06-81.64-16.28-122.69-1.02-18.6-1.06-34.7.3-44.88,1.02-7.67,2.92-21.95,10.44-35.31.33-.58.66-1.15,1-1.7,11.33-18.84,30.67-29.59,53.35-29.59,14.99,0,31.55,4.64,50.6,14.16,45.46,22.76,108.79,70.6,148.87,102.98,7.32,5.92,13.86,11.31,19.38,15.95,20.37-2.8,41.64-4.3,63.47-4.46h.61c21.82.16,43.09,1.66,63.47,4.46,5.52-4.64,12.06-10.03,19.38-15.95,40.08-32.38,103.41-80.22,148.87-102.98,19.06-9.53,35.61-14.16,50.6-14.16,22.05,0,40.94,10.16,52.38,28.02.68,1.06,1.34,2.14,1.97,3.26,6.6,11.74,8.92,23.91,10.44,35.31,1.26,9.44,1.31,23.97.52,40.86Z"/>
    <path class="cls-1" d="M846.18,279.8c-2.81-9.8-8.54-18.43-22.31-18.43-7.9,0-18.42,2.84-32.56,9.9-29.6,14.81-67.99,41.58-101.52,66.92-33.92,25.65-62.84,49.83-72.61,58.73-23.98-4.41-49.48-6.72-75.93-6.92-26.45.2-51.95,2.51-75.93,6.92-9.78-8.9-38.69-33.08-72.61-58.73-33.53-25.34-71.92-52.11-101.52-66.92-14.14-7.07-24.66-9.9-32.56-9.9-14.7,0-20.24,9.84-22.86,20.44-.93,3.77-1.49,7.62-1.97,11.16-1.17,8.81-.88,25.52.45,45.22,2.39,35.72,8.16,81.26,14.67,107.24.23.93.47,1.86.71,2.8,12.07,47.46,30.67,101.58,38.61,124.02-.01.35-.03.71-.03,1.07,0,89.62,59.57,167.01,145.77,203.16,32.56,13.65,68.9,21.41,107.26,21.74,38.37-.33,74.71-8.09,107.26-21.74,86.2-36.15,145.77-113.54,145.77-203.16,0-.37-.01-.72-.03-1.07,7.41-20.95,24.12-69.5,36.11-114.48,1.11-4.15,2.18-8.27,3.2-12.34,6.5-25.98,12.27-71.52,14.67-107.24,1.34-19.71,1.63-36.41.45-45.22-.55-4.18-1.23-8.78-2.51-13.17ZM322.01,497.09c-35.62,26.71-58.46-100.99-63.3-158.9-.63-7.64-.96-14.06-.96-18.76,0-21.57,5.42-36.84,20.16-30.24,13.62,6.11,33.01,26.13,51.03,49,29.94,38,56.13,83.89,45.99,87.08-24.41,7.65-22.79,49.23-52.92,71.82ZM417.77,635.69c-34.1,0-61.74-27.64-61.74-61.74,0-10.58,2.66-20.55,7.36-29.26,4.93,12.7,17.26,21.7,31.7,21.7,18.79,0,34.02-15.23,34.02-34.02,0-7.47-2.41-14.36-6.49-19.97,31.83,2.47,56.89,29.09,56.89,61.55,0,34.1-27.64,61.74-61.74,61.74ZM597.95,680.42c-7.41,5.56-16.12,8.39-24.83,8.39-6.11,0-12.23-1.4-17.9-4.23-5.64-2.82-10.34-6.84-13.96-11.71-3.62,4.86-8.32,8.88-13.96,11.71-5.67,2.84-11.79,4.23-17.9,4.23-8.72,0-17.43-2.84-24.83-8.39-4.17-3.14-5.03-9.06-1.89-13.23,3.12-4.17,9.05-5.03,13.23-1.89,6.83,5.13,15.62,6.04,22.96,2.37,7.33-3.67,11.58-11.05,11.68-20.29-.88-.42-1.73-.83-2.53-1.25s-1.59-.83-2.33-1.25c-.37-.2-.73-.4-1.08-.62-1.42-.83-2.72-1.65-3.89-2.47-.59-.4-1.15-.81-1.66-1.22-1.06-.81-1.99-1.63-2.81-2.42-.42-.4-.79-.79-1.15-1.2-.2-.2-.36-.39-.52-.59-.2-.24-.39-.48-.58-.71-.26-.35-.52-.71-.73-1.05-.25-.38-.47-.77-.68-1.13v-.03c-.5-.96-.86-1.89-1.07-2.8-.05-.19-.09-.37-.11-.55-.08-.37-.11-.73-.13-1.08-.19-3.25,1.36-6.21,4.01-8.73,5.49-5.23,15.69-8.54,24.73-8.54s19.25,3.31,24.73,8.54c2.63,2.51,4.18,5.46,4.01,8.71,0,.14-.01.28-.04.43,0,.04,0,.08-.01.11,0,.15-.03.3-.06.47-.04.34-.11.69-.23,1.03-.05.18-.1.34-.15.52s-.11.35-.19.53c-.06.18-.14.35-.21.53-.06.18-.15.35-.25.53-.26.54-.58,1.08-.95,1.63-.24.37-.5.73-.79,1.1-.14.18-.28.37-.45.55-.78.93-1.7,1.86-2.78,2.81-.21.19-.44.38-.67.57-.47.38-.95.76-1.46,1.15-.76.57-1.59,1.15-2.47,1.73-.59.38-1.21.77-1.86,1.16-.32.2-.64.39-.98.58-.34.2-.68.39-1.03.58-.35.2-.71.4-1.08.59-.37.2-.74.39-1.12.58h0c.03.3.04.58.04.87,0,9.4,4.26,16.92,11.69,20.64,7.33,3.67,16.13,2.76,22.96-2.37,4.17-3.12,10.11-2.28,13.23,1.89,3.14,4.17,2.28,10.09-1.89,13.23ZM669.77,635.69c-34.1,0-61.74-27.64-61.74-61.74,0-10.58,2.66-20.55,7.36-29.26,4.93,12.7,17.26,21.7,31.7,21.7,18.79,0,34.02-15.23,34.02-34.02,0-7.47-2.41-14.36-6.49-19.97,31.83,2.47,56.89,29.09,56.89,61.55,0,34.1-27.64,61.74-61.74,61.74ZM823.2,338.19c-4.84,57.91-27.68,185.61-63.3,158.9-30.13-22.59-28.51-64.17-52.92-71.82-10.14-3.19,16.05-49.08,45.99-87.08,18.03-22.87,37.4-42.89,51.03-49,14.74-6.6,20.16,8.67,20.16,30.24,0,4.7-.33,11.13-.96,18.76Z"/>
  </g>
</svg>