<?xml version="1.0" encoding="UTF-8"?>
<svg id="Ebene_9" xmlns="http://www.w3.org/2000/svg" xmlns:xlink="http://www.w3.org/1999/xlink" viewBox="0 0 1080 1080">
  <defs>
    <style>
      .cls-1 {
        fill: url(#Unbenannter_Verlauf_113-2);
      }

      .cls-2 {
        fill: #1b1f3a;
      }

      .cls-3 {
        fill: url(#Unbenannter_Verlauf_113);
      }
    </style>
    <linearGradient id="Unbenannter_Verlauf_113" data-name="Unbenannter Verlauf 113" x1="97.13" y1="951.65" x2="1024.95" y2="85.33" gradientUnits="userSpaceOnUse">
      <stop offset=".24" stop-color="#ff7844"/>
      <stop offset="1" stop-color="#ffcd5c"/>
    </linearGradient>
    <linearGradient id="Unbenannter_Verlauf_113-2" data-name="Unbenannter Verlauf 113" x1="41.48" y1="892.06" x2="969.3" y2="25.74" xlink:href="#Unbenannter_Verlauf_113"/>
  </defs>
  <path class="cls-2" d="M956.18,238.77c-1.81-13.61-4.58-28.13-12.46-42.15-.75-1.34-1.54-2.64-2.34-3.89-13.66-21.32-36.2-33.45-62.53-33.45-17.89,0-37.64,5.53-60.4,16.9-54.26,27.17-129.85,84.28-177.69,122.93-8.74,7.06-16.55,13.49-23.14,19.04-24.32-3.34-49.71-5.12-75.75-5.32h-.73c-26.05.2-51.44,1.98-75.76,5.32-6.59-5.54-14.39-11.97-23.12-19.04-47.85-38.66-123.44-95.76-177.71-122.93-22.73-11.37-42.51-16.9-60.4-16.9-27.07,0-50.16,12.82-63.68,35.31-.4.67-.8,1.34-1.19,2.04-8.99,15.94-11.26,32.98-12.48,42.15-1.62,12.16-1.58,31.37-.36,53.57,2.65,49,10.94,112.51,19.44,146.45,13.31,53.24,33.26,112.95,45.54,148.08.22,9.24.88,18.42,1.98,27.52v207.89h123.92c62.62,47.25,141.03,73.36,223.77,74.07h.81c82.73-.71,161.16-26.82,223.76-74.07h120.95v-188.73c2.93-15.34,4.58-30.91,4.95-46.68,12.29-35.13,32.24-94.84,45.55-148.08,8.76-35.04,17.33-101.68,19.68-151.25.95-20.17.89-37.51-.61-48.77Z"/>
  <g>
    <path class="cls-3" d="M1051.7,94.89H28.3c-11.85,0-18.3,19.4-12.31,33.12h0s118.17,703.57,118.17,703.57c-7.27,4.14-13.83,9.6-19.31,16.17l-95.01,114.15c-7.7,9.24-1.05,23.21,11.05,23.21h1015.38c12.11,0,18.74-13.97,11.05-23.21l-95.01-114.15c-4.81-5.79-10.48-10.7-16.75-14.63l118.44-705.11c5.99-13.72-.46-33.13-12.31-33.13ZM956.79,287.54c-2.34,49.57-10.91,116.21-19.68,151.25-13.31,53.24-33.26,112.95-45.55,148.08-.38,15.77-2.02,31.34-4.95,46.68v188.73h-120.95c-62.6,47.25-141.03,73.36-223.76,74.07h-.81c-82.74-.71-161.16-26.82-223.77-74.07h-123.92v-207.89c-1.1-9.1-1.76-18.28-1.98-27.52-12.28-35.13-32.22-94.84-45.54-148.08-8.5-33.94-16.79-97.45-19.44-146.45-1.21-22.2-1.26-41.42.36-53.57,1.21-9.17,3.49-26.21,12.48-42.15.39-.7.78-1.37,1.19-2.04,13.52-22.48,36.6-35.31,63.68-35.31,17.89,0,37.67,5.53,60.4,16.9,54.27,27.17,129.85,84.28,177.71,122.93,8.74,7.06,16.54,13.49,23.12,19.04,24.32-3.34,49.71-5.12,75.76-5.32h.73c26.04.2,51.43,1.98,75.75,5.32,6.59-5.54,14.4-11.97,23.14-19.04,47.84-38.66,123.44-95.76,177.69-122.93,22.76-11.37,42.51-16.9,60.4-16.9,26.33,0,48.87,12.13,62.53,33.45.81,1.26,1.59,2.55,2.34,3.89,7.88,14.01,10.65,28.54,12.46,42.15,1.51,11.26,1.56,28.61.61,48.77Z"/>
    <path class="cls-1" d="M908.48,245.13c-.67-5-1.48-10.49-3-15.73-3.35-11.69-10.2-21.99-26.64-21.99-9.42,0-21.98,3.38-38.85,11.82-35.33,17.67-81.16,49.63-121.19,79.88-40.48,30.62-75,59.48-86.68,70.1-28.62-5.26-59.06-8.01-90.63-8.26-31.58.25-62.02,3-90.64,8.26-11.67-10.62-46.19-39.48-86.68-70.1-40.02-30.26-85.85-62.21-121.17-79.88-16.87-8.44-29.43-11.82-38.87-11.82-17.56,0-24.16,11.74-27.28,24.39-1.12,4.49-1.77,9.1-2.34,13.33-1.41,10.51-1.06,30.45.54,53.98,2.85,42.63,9.74,96.99,17.5,128,.26,1.12.56,2.23.84,3.35,14.42,56.64,36.62,121.24,46.09,148.04-.01.42-.04.84-.04,1.27,0,106.98,71.12,199.37,174.01,242.52,38.87,16.29,82.24,25.55,128.04,25.94,45.79-.39,89.17-9.66,128.04-25.94,102.88-43.15,174-135.53,174-242.52,0-.43-.01-.85-.03-1.27,8.85-25.01,28.79-82.96,43.11-136.66,1.31-4.94,2.6-9.87,3.81-14.72,7.76-31.01,14.65-85.36,17.51-128,1.59-23.53,1.94-43.47.54-53.98ZM279.79,488.78c-42.52,31.89-69.79-120.55-75.57-189.67-.75-9.11-1.14-16.79-1.14-22.4,0-25.75,6.48-43.97,24.07-36.1,16.26,7.3,39.41,31.2,60.91,58.5,35.73,45.35,67,100.13,54.89,103.94-29.12,9.13-27.2,58.77-63.16,85.73ZM394.1,654.22c-40.71,0-73.7-32.99-73.7-73.7,0-12.63,3.17-24.52,8.78-34.92,5.89,15.16,20.61,25.9,37.85,25.9,22.43,0,40.61-18.18,40.61-40.61,0-8.92-2.87-17.15-7.74-23.84,37.99,2.94,67.91,34.72,67.91,73.46,0,40.71-33,73.7-73.7,73.7ZM609.18,707.61c-8.85,6.64-19.24,10.02-29.66,10.02-7.28,0-14.6-1.67-21.37-5.05-6.74-3.38-12.35-8.16-16.66-13.97-4.33,5.81-9.94,10.59-16.66,13.97-6.77,3.38-14.08,5.05-21.38,5.05-10.41,0-20.79-3.38-29.64-10.02-4.98-3.74-6-10.82-2.26-15.78,3.73-4.98,10.8-6,15.8-2.26,8.15,6.13,18.64,7.2,27.39,2.83,8.76-4.38,13.83-13.2,13.96-24.23-1.06-.49-2.07-.99-3.03-1.48-.96-.5-1.9-.99-2.78-1.49-.45-.24-.88-.47-1.3-.74-1.7-.99-3.25-1.97-4.65-2.94-.71-.49-1.37-.96-1.98-1.47-1.27-.96-2.39-1.94-3.36-2.89-.49-.47-.95-.94-1.37-1.42-.24-.24-.43-.46-.61-.71-.24-.28-.46-.56-.7-.84-.31-.42-.61-.84-.87-1.24-.31-.46-.56-.92-.81-1.35v-.04c-.6-1.13-1.03-2.25-1.28-3.34-.06-.22-.1-.43-.14-.66-.08-.43-.13-.88-.14-1.3-.24-3.88,1.62-7.41,4.77-10.42,6.56-6.24,18.73-10.19,29.53-10.19s22.98,3.95,29.53,10.19c3.14,3,4.98,6.52,4.77,10.4,0,.17-.01.33-.04.52,0,.04,0,.08-.01.13,0,.18-.03.36-.07.56-.06.4-.14.82-.28,1.24-.06.21-.11.4-.18.61-.06.21-.13.42-.22.63-.07.21-.17.42-.25.63-.08.21-.18.42-.31.64-.31.64-.68,1.28-1.13,1.94-.28.43-.6.87-.95,1.3-.15.21-.32.45-.53.67-.93,1.12-2.04,2.22-3.33,3.35-.25.22-.52.45-.8.68-.56.45-1.12.89-1.74,1.37-.89.67-1.88,1.37-2.94,2.05-.71.46-1.44.92-2.22,1.38-.38.25-.77.47-1.17.7-.42.24-.82.46-1.24.7s-.84.47-1.3.7c-.43.25-.88.47-1.33.7h0c.03.36.04.68.04,1.03,0,11.22,5.08,20.21,13.96,24.65,8.75,4.37,19.24,3.29,27.41-2.83,4.97-3.73,12.06-2.72,15.78,2.26,3.75,4.97,2.72,12.04-2.25,15.78ZM694.9,654.22c-40.71,0-73.7-32.99-73.7-73.7,0-12.63,3.17-24.52,8.78-34.92,5.89,15.16,20.61,25.9,37.85,25.9,22.43,0,40.61-18.18,40.61-40.61,0-8.92-2.87-17.15-7.75-23.84,37.99,2.94,67.91,34.72,67.91,73.46,0,40.71-33,73.7-73.7,73.7ZM878.04,299.11c-5.76,69.12-33.03,221.56-75.55,189.67-35.96-26.96-34.04-76.6-63.18-85.73-12.1-3.81,19.16-58.58,54.9-103.94,21.52-27.3,44.64-51.2,60.91-58.5,17.6-7.87,24.06,10.35,24.06,36.1,0,5.61-.39,13.29-1.14,22.4Z"/>
  </g>
</svg>