<?xml version="1.0" encoding="UTF-8"?>
<svg xmlns="http://www.w3.org/2000/svg" xmlns:xlink="http://www.w3.org/1999/xlink" viewBox="0 0 1075.08 300.97">
  <defs>
    <style>
      .cls-1 {
        fill: url(#Unbenannter_Verlauf_23-7);
      }

      .cls-2 {
        fill: url(#Unbenannter_Verlauf_23-3);
      }

      .cls-3 {
        fill: url(#Unbenannter_Verlauf_23-6);
      }

      .cls-4 {
        fill: url(#Unbenannter_Verlauf_23-5);
      }

      .cls-5 {
        fill: none;
      }

      .cls-6 {
        fill: #1b1f3a;
      }

      .cls-7 {
        fill: url(#Unbenannter_Verlauf_23-9);
      }

      .cls-8 {
        fill: url(#Unbenannter_Verlauf_23-4);
      }

      .cls-9 {
        fill: url(#Unbenannter_Verlauf_23-2);
      }

      .cls-10 {
        fill: url(#Unbenannter_Verlauf_23);
      }

      .cls-11 {
        fill: url(#Unbenannter_Verlauf_23-8);
      }
    </style>
    <linearGradient id="Unbenannter_Verlauf_23" data-name="Unbenannter Verlauf 23" x1="129.53" y1="150.4" x2="1067.76" y2="150.4" gradientUnits="userSpaceOnUse">
      <stop offset=".24" stop-color="#5e43ff"/>
      <stop offset="1" stop-color="#8d8dff"/>
    </linearGradient>
    <linearGradient id="Unbenannter_Verlauf_23-2" data-name="Unbenannter Verlauf 23" x1="311.25" y1="144.87" x2="926.59" y2="47.27" xlink:href="#Unbenannter_Verlauf_23"/>
    <linearGradient id="Unbenannter_Verlauf_23-3" data-name="Unbenannter Verlauf 23" x1="317.87" y1="186.6" x2="933.21" y2="89" xlink:href="#Unbenannter_Verlauf_23"/>
    <linearGradient id="Unbenannter_Verlauf_23-4" data-name="Unbenannter Verlauf 23" x1="316.93" y1="180.64" x2="932.26" y2="83.04" xlink:href="#Unbenannter_Verlauf_23"/>
    <linearGradient id="Unbenannter_Verlauf_23-5" data-name="Unbenannter Verlauf 23" x1="321.34" y1="208.44" x2="936.67" y2="110.84" xlink:href="#Unbenannter_Verlauf_23"/>
    <linearGradient id="Unbenannter_Verlauf_23-6" data-name="Unbenannter Verlauf 23" x1="321.27" y1="208.05" x2="936.61" y2="110.44" xlink:href="#Unbenannter_Verlauf_23"/>
    <linearGradient id="Unbenannter_Verlauf_23-7" data-name="Unbenannter Verlauf 23" x1="325.03" y1="231.72" x2="940.36" y2="134.11" xlink:href="#Unbenannter_Verlauf_23"/>
    <linearGradient id="Unbenannter_Verlauf_23-8" data-name="Unbenannter Verlauf 23" x1="327" y1="244.12" x2="942.33" y2="146.52" xlink:href="#Unbenannter_Verlauf_23"/>
    <linearGradient id="Unbenannter_Verlauf_23-9" data-name="Unbenannter Verlauf 23" x1="73.52" y1="190.94" x2="250.34" y2="87.68" xlink:href="#Unbenannter_Verlauf_23"/>
  </defs>
  <g id="Ebene_10">
    <rect class="cls-5" x="4.6" y="19.32" width="255.12" height="255.12"/>
  </g>
  <g id="Ebene_12">
    <g>
      <path class="cls-10" d="M1067.76,150.4c0,37.9-13.49,72.21-35.3,97.05-21.81,24.84-51.94,40.2-85.23,40.2H351.22c-9.59,0-18.63-4.51-24.4-12.18L129.53,13.15h817.7c66.57,0,120.53,61.45,120.53,137.25Z"/>
      <path class="cls-6" d="M929.52,13.15H127.8C61.23,13.15,7.27,69.96,7.27,140.05c0,35.04,13.49,66.76,35.3,89.73,21.81,22.96,51.95,37.17,85.23,37.17h801.72c33.28,0,63.42-14.2,85.23-37.17,21.81-22.96,35.3-54.69,35.3-89.73,0-70.08-53.96-126.9-120.53-126.9Z"/>
    </g>
    <g>
      <path class="cls-9" d="M419.14,141.85c-.33,3.32-.83,6.99-1.49,11.02-.66,4.04-1.69,8.12-3.07,12.27-1.38,4.14-3.23,8.15-5.55,12.02-2.32,3.87-5.3,7.32-8.95,10.36-3.65,3.04-8.04,5.47-13.18,7.29-5.14,1.82-11.25,2.74-18.32,2.74s-13.32-1.02-18.4-3.07c-5.08-2.04-9.23-4.86-12.43-8.45-3.21-3.59-5.53-7.76-6.96-12.52-1.44-4.75-2.15-9.84-2.15-15.25,0-2.43.11-5.72.33-9.86.22-4.14.52-8.65.91-13.51.39-4.86.8-9.92,1.24-15.17.44-5.25.85-10.25,1.24-15,.39-4.75.75-9.03,1.08-12.85.33-3.81.55-6.71.66-8.7.11-2.1.39-3.45.83-4.06.44-.61,1.1-.91,1.99-.91h9.12c6.74,0,11.27,1.44,13.59,4.31,2.32,2.88,3.48,7.13,3.48,12.76,0,.33-.08,1.8-.25,4.39-.17,2.6-.39,5.78-.66,9.53-.28,3.76-.55,7.85-.83,12.27-.28,4.42-.55,8.62-.83,12.6-.28,3.98-.5,7.46-.66,10.44-.17,2.98-.25,4.97-.25,5.97,0,1.88.08,4.04.25,6.46.17,2.43.61,4.75,1.33,6.96.72,2.21,1.88,4.06,3.48,5.55,1.6,1.49,3.9,2.24,6.88,2.24,3.76,0,6.82-1.27,9.2-3.81,2.38-2.54,4.2-5.58,5.47-9.12,1.27-3.54,2.16-7.13,2.65-10.77.5-3.65.85-6.63,1.08-8.95.44-5.64.91-11.44,1.41-17.41.5-5.97.94-11.55,1.33-16.74.39-5.19.69-9.72.91-13.59.22-3.87.33-6.52.33-7.96,0-2.21.17-3.62.5-4.23.33-.61,1.05-.91,2.15-.91h9.12c3.76,0,6.71.33,8.87.99,2.16.66,3.78,1.55,4.89,2.65,1.1,1.11,1.79,2.38,2.07,3.81.27,1.44.41,2.93.41,4.48,0,1.44-.08,4.14-.25,8.12-.17,3.98-.36,8.51-.58,13.59-.22,5.08-.5,10.33-.83,15.75-.33,5.42-.72,10.17-1.16,14.26Z"/>
      <path class="cls-2" d="M492.58,103.06c10.39,0,18.21,3.21,23.46,9.61,5.25,6.41,7.87,16.52,7.87,30.34,0,8.62-.99,16.3-2.98,23.04-1.99,6.74-4.75,12.46-8.29,17.16-3.54,4.7-7.68,8.26-12.43,10.69-4.75,2.43-9.89,3.65-15.42,3.65-5.86,0-10.44-1.27-13.76-3.81-3.32-2.54-5.91-6.13-7.79-10.77-.33,3.98-.61,7.02-.83,9.12-.22,2.1-.39,3.79-.5,5.06-.11,1.27-.19,2.4-.25,3.4-.06.99-.17,2.32-.33,3.98-.17,1.66-.36,3.92-.58,6.8-.22,2.87-.55,6.85-.99,11.93-.11,1.33-.39,2.21-.83,2.65-.44.44-1.38.66-2.82.66h-5.97c-3.43,0-6.22-.36-8.37-1.08-2.15-.72-3.87-1.74-5.14-3.07-1.27-1.33-2.16-2.96-2.65-4.89-.5-1.93-.75-4.17-.75-6.71,0-1.11.17-4.09.5-8.95.33-4.86.75-10.69,1.24-17.49.5-6.8,1.05-14.12,1.66-21.96.61-7.85,1.19-15.33,1.74-22.46.55-7.13,1.02-13.45,1.41-18.98.39-5.52.69-9.34.91-11.44.11-2.43.39-3.87.83-4.31.33-.33,1.21-.5,2.65-.5h6.46c5.97,0,10.3,1.24,13.01,3.73,2.71,2.49,4.06,5.44,4.06,8.87,2.54-5.08,5.83-8.73,9.86-10.94,4.03-2.21,9.03-3.32,15-3.32ZM480.48,125.11c-5.64,0-9.78,2.43-12.43,7.29-2.65,4.86-3.98,11.5-3.98,19.89,0,2.88.19,5.69.58,8.45.39,2.76,1.08,5.25,2.07,7.46.99,2.21,2.35,3.98,4.06,5.3,1.71,1.33,3.9,1.99,6.55,1.99,4.75,0,8.73-2.32,11.94-6.96,3.2-4.64,4.81-11.94,4.81-21.88,0-2.76-.19-5.44-.58-8.04-.39-2.6-1.08-4.89-2.07-6.88-.99-1.99-2.38-3.59-4.14-4.81-1.77-1.21-4.04-1.82-6.8-1.82Z"/>
      <path class="cls-8" d="M567.01,197.55c-4.31,0-8.43-.77-12.35-2.32-3.92-1.55-7.35-3.98-10.28-7.29-2.93-3.32-5.25-7.51-6.96-12.6-1.71-5.08-2.57-11.22-2.57-18.4,0-3.2.22-6.77.66-10.69.44-3.92,1.21-7.87,2.32-11.85,1.1-3.98,2.65-7.85,4.64-11.6,1.99-3.76,4.5-7.1,7.54-10.03,3.04-2.93,6.69-5.28,10.94-7.05,4.25-1.77,9.25-2.65,15-2.65s9.97.97,13.34,2.9c3.37,1.93,5.5,5.28,6.38,10.03.22-4.31.44-8.07.66-11.27.22-3.2.41-6.19.58-8.95.17-2.76.36-5.52.58-8.29.22-2.76.44-5.91.66-9.45.11-2.43.39-3.87.83-4.31.22-.22.5-.36.83-.41.33-.05.94-.08,1.82-.08h6.46c3.32,0,6.08.39,8.29,1.16,2.21.77,3.98,1.82,5.3,3.15s2.26,2.85,2.82,4.56c.55,1.71.83,3.51.83,5.39-.44,5.53-.83,10.58-1.16,15.17-.33,4.59-.72,9.81-1.16,15.67-.44,5.86-.89,11.91-1.33,18.15-.44,6.25-.89,12.43-1.33,18.57-.44,6.13-.89,11.77-1.33,16.91-.44,5.14-.8,9.56-1.08,13.26-.28,3.7-.47,6.16-.58,7.38-.22,1.33-.5,2.21-.83,2.65-.33.44-1.27.66-2.82.66h-5.97c-2.32,0-4.5-.19-6.55-.58-2.05-.39-3.81-1.05-5.3-1.99-1.49-.94-2.65-2.21-3.48-3.81-.83-1.6-1.24-3.67-1.24-6.22-1.99,4.2-5,7.63-9.03,10.28-4.04,2.65-9.09,3.98-15.17,3.98ZM581.43,125.11c-5.64,0-9.81,2.46-12.52,7.38-2.71,4.92-4.06,11.52-4.06,19.81,0,2.88.19,5.69.58,8.45.39,2.76,1.08,5.25,2.07,7.46.99,2.21,2.35,3.98,4.06,5.3,1.71,1.33,3.9,1.99,6.55,1.99,4.75,0,8.73-2.32,11.93-6.96,3.2-4.64,4.81-11.94,4.81-21.88,0-2.76-.17-5.44-.5-8.04-.33-2.6-.99-4.89-1.99-6.88-.99-1.99-2.38-3.59-4.14-4.81-1.77-1.21-4.04-1.82-6.8-1.82Z"/>
      <path class="cls-4" d="M632.48,175.5c0-9.95,4.48-17.74,13.43-23.37,8.95-5.64,22.16-8.67,39.62-9.12.11-1.21.19-2.24.25-3.07.05-.83.08-1.85.08-3.07,0-3.54-.66-6.35-1.99-8.45-1.33-2.1-4.09-3.15-8.29-3.15-2.32,0-4.2.33-5.64.99-1.44.66-2.6,1.57-3.48,2.74-.89,1.16-1.6,2.57-2.16,4.23-.55,1.66-1.05,3.48-1.49,5.47-.22.99-.72,1.63-1.49,1.91-.77.28-1.99.41-3.65.41-11.27,0-16.91-4.25-16.91-12.76,0-3.42.8-6.69,2.4-9.78,1.6-3.09,3.98-5.77,7.13-8.04,3.15-2.26,7.1-4.06,11.85-5.39,4.75-1.33,10.28-1.99,16.58-1.99,12.27,0,21.16,2.54,26.69,7.63,5.52,5.08,8.29,12.27,8.29,21.55,0,1.22-.14,3.4-.41,6.55-.28,3.15-.61,6.46-.99,9.95-.39,3.48-.72,6.77-.99,9.86-.28,3.1-.41,5.25-.41,6.46,0,2.76.5,4.72,1.49,5.88.99,1.16,2.13,1.96,3.4,2.4,1.27.44,2.4.77,3.4.99.99.22,1.49.77,1.49,1.66,0,2.43-.33,4.92-.99,7.46-.66,2.54-1.74,4.86-3.23,6.96-1.49,2.1-3.54,3.81-6.13,5.14-2.6,1.33-5.78,1.99-9.53,1.99-5.3,0-9.28-1.27-11.93-3.81-2.65-2.54-4.42-6.08-5.3-10.61-2.65,3.87-6.11,7.24-10.36,10.11-4.26,2.87-9.81,4.31-16.66,4.31-3.32,0-6.44-.39-9.37-1.16-2.93-.77-5.47-2.04-7.63-3.81-2.15-1.77-3.87-4.06-5.14-6.88-1.27-2.82-1.91-6.22-1.91-10.19ZM684.04,156.6c-2.88,0-5.69.22-8.45.66-2.76.44-5.22,1.13-7.38,2.07-2.16.94-3.9,2.18-5.22,3.73-1.33,1.55-1.99,3.43-1.99,5.64,0,2.54.8,4.31,2.4,5.3,1.6.99,3.34,1.49,5.22,1.49,1.77,0,3.54-.39,5.3-1.16,1.77-.77,3.34-1.96,4.72-3.56,1.38-1.6,2.57-3.56,3.56-5.88.99-2.32,1.6-5.08,1.82-8.29Z"/>
      <path class="cls-3" d="M766.42,127.09c-.33,4.2-.69,8.35-1.08,12.43-.39,4.09-.75,7.96-1.08,11.6-.33,3.65-.58,6.91-.75,9.78-.17,2.88-.25,5.08-.25,6.63,0,2.88.33,4.78.99,5.72.66.94,1.77,1.41,3.32,1.41,1.21,0,2.26-.22,3.15-.66.88-.44,1.71-.94,2.49-1.49.77-.55,1.46-1.05,2.07-1.49.61-.44,1.3-.66,2.07-.66s1.49.44,2.16,1.33c.66.89.99,2.93.99,6.13,0,6.08-1.66,10.89-4.97,14.42-3.32,3.54-9.01,5.3-17.07,5.3s-13.84-1.85-17.65-5.55c-3.81-3.7-5.72-9.37-5.72-16.99,0-1.66.08-3.62.25-5.88.17-2.26.41-5.22.75-8.87.33-3.65.75-8.12,1.24-13.43.5-5.3,1.02-11.88,1.58-19.73h-8.79c-.89,0-1.41-.19-1.58-.58-.17-.39-.25-.97-.25-1.74l.5-8.45c.11-1.43.3-2.84.58-4.23.27-1.38.83-2.62,1.66-3.73.83-1.1,2.02-1.99,3.56-2.65,1.55-.66,3.59-.99,6.13-.99.77-1.99,1.66-4.36,2.65-7.13.99-2.76,1.99-5.44,2.98-8.04.99-2.6,1.96-4.78,2.9-6.55.94-1.77,1.79-2.65,2.57-2.65h4.81c4.64,0,7.85,1.44,9.61,4.31,1.77,2.88,2.65,6.3,2.65,10.28,0,2.21-.17,5.47-.5,9.78h17.41c1.77,0,2.65.77,2.65,2.32l-.66,8.95c-.22,3.32-1.13,6-2.74,8.04-1.6,2.05-4.89,3.07-9.86,3.07h-8.79Z"/>
      <path class="cls-1" d="M834.06,197.55c-4.86,0-9.7-.61-14.5-1.82-4.81-1.21-9.12-3.32-12.93-6.3-3.81-2.98-6.94-6.96-9.37-11.94-2.43-4.97-3.65-11.22-3.65-18.73,0-2.76.22-6.08.66-9.95.44-3.87,1.3-7.85,2.57-11.94,1.27-4.09,3.04-8.15,5.3-12.18,2.26-4.03,5.22-7.65,8.87-10.86,3.65-3.2,8.07-5.8,13.26-7.79,5.19-1.99,11.38-2.98,18.57-2.98,5.75,0,10.61.66,14.59,1.99,3.98,1.33,7.18,3.12,9.61,5.39,2.43,2.27,4.2,4.89,5.3,7.87,1.1,2.98,1.66,6.19,1.66,9.61,0,5.08-1.02,9.39-3.07,12.93-2.05,3.54-4.7,6.49-7.96,8.87-3.26,2.38-6.88,4.23-10.86,5.55-3.98,1.33-7.9,2.35-11.77,3.07-3.87.72-7.43,1.16-10.69,1.33-3.26.17-5.78.25-7.54.25,0,2.1.3,4.17.91,6.22.61,2.05,1.52,3.84,2.74,5.39,1.21,1.55,2.82,2.82,4.81,3.81,1.99.99,4.42,1.49,7.29,1.49s5.11-.47,6.71-1.41c1.6-.94,2.9-1.99,3.9-3.15.99-1.16,1.85-2.21,2.57-3.15.72-.94,1.68-1.41,2.9-1.41.55,0,1.52.14,2.9.41,1.38.28,2.79.86,4.23,1.74,1.43.89,2.71,2.1,3.81,3.65,1.1,1.55,1.66,3.54,1.66,5.97,0,3.21-.99,5.97-2.98,8.29-1.99,2.32-4.56,4.2-7.71,5.64-3.15,1.44-6.66,2.49-10.53,3.15-3.87.66-7.63.99-11.27.99ZM837.2,125.11c-2.43,0-4.5.69-6.22,2.07-1.71,1.38-3.15,3.12-4.31,5.22-1.16,2.1-2.05,4.42-2.65,6.96-.61,2.54-1.08,4.97-1.41,7.29,6.85-.11,12.4-1.27,16.66-3.48,4.25-2.21,6.38-5.36,6.38-9.45,0-2.21-.69-4.2-2.07-5.97-1.38-1.77-3.51-2.65-6.38-2.65Z"/>
      <path class="cls-11" d="M922.57,103.06c9.39,0,16.3,1.85,20.72,5.55,4.42,3.7,6.63,8.43,6.63,14.17,0,4.86-1.52,8.57-4.56,11.11-3.04,2.54-7.43,3.81-13.18,3.81-1.55,0-2.6-.17-3.15-.5-.55-.33-.83-.94-.83-1.82,0-.99-.08-2.13-.25-3.4-.17-1.27-.55-2.49-1.16-3.65-.61-1.16-1.55-2.13-2.82-2.9-1.27-.77-3.07-1.16-5.39-1.16-3.1,0-5.58.75-7.46,2.24-1.88,1.49-2.82,3.34-2.82,5.55,0,2.32.97,4.17,2.9,5.55,1.93,1.38,4.36,2.68,7.29,3.9,2.93,1.22,6.1,2.46,9.53,3.73,3.42,1.27,6.6,2.96,9.53,5.06,2.93,2.1,5.36,4.72,7.29,7.87,1.93,3.15,2.9,7.21,2.9,12.18,0,7.96-2.82,14.48-8.45,19.56-5.64,5.08-14.09,7.63-25.36,7.63-3.1,0-6.66-.25-10.69-.75-4.04-.5-7.87-1.27-11.52-2.32-3.65-1.05-6.71-2.46-9.2-4.23-2.49-1.77-3.73-3.98-3.73-6.63,0-.99.19-2.21.58-3.65.39-1.43.99-2.82,1.82-4.14.83-1.33,1.82-2.46,2.98-3.4,1.16-.94,2.57-1.41,4.23-1.41,1.33,0,2.54.33,3.65.99,1.1.66,2.4,1.35,3.9,2.07,1.49.72,3.34,1.41,5.55,2.07,2.21.66,5.14.99,8.79.99,2.76,0,5.22-.33,7.38-.99,2.16-.66,3.23-2.15,3.23-4.48,0-2.1-.89-3.78-2.65-5.06-1.77-1.27-4.01-2.46-6.71-3.56-2.71-1.1-5.64-2.29-8.79-3.56-3.15-1.27-6.08-2.96-8.79-5.06-2.71-2.1-4.95-4.78-6.71-8.04-1.77-3.26-2.65-7.49-2.65-12.68,0-5.64,1.13-10.42,3.4-14.34,2.26-3.92,5.19-7.1,8.79-9.53,3.59-2.43,7.65-4.17,12.18-5.22,4.53-1.05,9.06-1.57,13.59-1.57Z"/>
    </g>
    <path class="cls-7" d="M158.73,236.69c-13.29,0-25.73-2.52-37.33-7.57-11.6-5.05-21.7-11.87-30.3-20.46-8.6-8.6-15.42-18.69-20.46-30.3-5.05-11.6-7.57-24.05-7.58-37.34,0-13.29,2.52-25.74,7.58-37.33,5.06-11.59,11.88-21.69,20.45-30.3,8.57-8.6,18.67-15.42,30.29-20.46,11.62-5.04,24.07-7.56,37.34-7.58,14.53,0,28.3,3.1,41.33,9.3,13.03,6.2,24.05,14.97,33.08,26.31v-14.35c0-3.01,1.02-5.53,3.06-7.57,2.04-2.03,4.56-3.05,7.57-3.06,3,0,5.53,1.01,7.58,3.06,2.05,2.05,3.06,4.57,3.05,7.57v42.52c0,3.01-1.02,5.54-3.06,7.58-2.04,2.04-4.56,3.06-7.57,3.05h-42.52c-3.01,0-5.53-1.02-7.57-3.06-2.03-2.04-3.05-4.56-3.06-7.57,0-3,1.01-5.53,3.06-7.57,2.05-2.04,4.57-3.06,7.57-3.06h18.6c-7.26-9.92-16.21-17.72-26.84-23.39-10.63-5.67-22.06-8.5-34.28-8.5-20.73,0-38.31,7.22-52.75,21.66-14.44,14.44-21.66,32.02-21.66,52.75s7.21,38.31,21.66,52.76c14.45,14.45,32.03,21.67,52.75,21.65,16.83,0,31.89-5.05,45.18-15.15,13.29-10.1,22.06-23.12,26.31-39.06.89-2.83,2.48-4.96,4.78-6.38,2.3-1.42,4.87-1.95,7.71-1.59,3.01.35,5.4,1.64,7.18,3.85s2.3,4.65,1.59,7.31c-5.14,21.08-16.3,38.4-33.48,51.96-17.18,13.56-36.94,20.33-59.26,20.32M169.36,136.77l26.57,26.57c1.95,1.95,2.92,4.43,2.92,7.44,0,3.01-.97,5.49-2.92,7.44-1.95,1.95-4.43,2.92-7.44,2.92-3.01,0-5.49-.97-7.44-2.92l-29.76-29.76c-1.06-1.06-1.86-2.26-2.39-3.58-.53-1.33-.8-2.7-.8-4.12v-42.25c0-3.01,1.02-5.53,3.06-7.57,2.04-2.03,4.56-3.05,7.57-3.06,3,0,5.53,1.01,7.58,3.06s3.06,4.57,3.05,7.57v38.27Z"/>
  </g>
</svg>