<?xml version="1.0" encoding="UTF-8"?>
<svg id="Ebene_10" xmlns="http://www.w3.org/2000/svg" xmlns:xlink="http://www.w3.org/1999/xlink" viewBox="0 0 3086.24 864">
  <defs>
    <style>
      .cls-1 {
        fill: url(#Unbenannter_Verlauf_113-2);
      }

      .cls-2 {
        fill: url(#Unbenannter_Verlauf_113-9);
        fill-rule: evenodd;
      }

      .cls-3 {
        fill: #1b1f3a;
      }

      .cls-4 {
        fill: url(#Unbenannter_Verlauf_113-3);
      }

      .cls-5 {
        fill: url(#Unbenannter_Verlauf_113);
      }

      .cls-6 {
        fill: url(#Unbenannter_Verlauf_113-8);
      }

      .cls-7 {
        fill: url(#Unbenannter_Verlauf_113-6);
      }

      .cls-8 {
        fill: url(#Unbenannter_Verlauf_113-4);
      }

      .cls-9 {
        fill: url(#Unbenannter_Verlauf_113-5);
      }

      .cls-10 {
        fill: url(#Unbenannter_Verlauf_113-7);
      }
    </style>
    <linearGradient id="Unbenannter_Verlauf_113" data-name="Unbenannter Verlauf 113" x1="352.76" y1="455.58" x2="3023.14" y2="455.58" gradientUnits="userSpaceOnUse">
      <stop offset=".24" stop-color="#ff7844"/>
      <stop offset="1" stop-color="#ffcd5c"/>
    </linearGradient>
    <linearGradient id="Unbenannter_Verlauf_113-2" data-name="Unbenannter Verlauf 113" x1="828.88" y1="442.33" x2="2567.55" y2="214.77" xlink:href="#Unbenannter_Verlauf_113"/>
    <linearGradient id="Unbenannter_Verlauf_113-3" data-name="Unbenannter Verlauf 113" x1="838.55" y1="516.17" x2="2577.21" y2="288.62" xlink:href="#Unbenannter_Verlauf_113"/>
    <linearGradient id="Unbenannter_Verlauf_113-4" data-name="Unbenannter Verlauf 113" x1="836.83" y1="503.05" x2="2575.5" y2="275.49" xlink:href="#Unbenannter_Verlauf_113"/>
    <linearGradient id="Unbenannter_Verlauf_113-5" data-name="Unbenannter Verlauf 113" x1="845.29" y1="567.68" x2="2583.95" y2="340.12" xlink:href="#Unbenannter_Verlauf_113"/>
    <linearGradient id="Unbenannter_Verlauf_113-6" data-name="Unbenannter Verlauf 113" x1="843.78" y1="556.19" x2="2582.45" y2="328.63" xlink:href="#Unbenannter_Verlauf_113"/>
    <linearGradient id="Unbenannter_Verlauf_113-7" data-name="Unbenannter Verlauf 113" x1="851.69" y1="616.63" x2="2590.36" y2="389.07" xlink:href="#Unbenannter_Verlauf_113"/>
    <linearGradient id="Unbenannter_Verlauf_113-8" data-name="Unbenannter Verlauf 113" x1="855.51" y1="645.82" x2="2594.18" y2="418.26" xlink:href="#Unbenannter_Verlauf_113"/>
    <linearGradient id="Unbenannter_Verlauf_113-9" data-name="Unbenannter Verlauf 113" x1="187.46" y1="432" x2="664.87" y2="432" xlink:href="#Unbenannter_Verlauf_113"/>
  </defs>
  <path class="cls-5" d="M3023.14,455.58c0,95.26-33.91,181.5-88.74,243.93-54.82,62.43-130.56,101.04-214.22,101.04H909.97c-24.12,0-46.83-11.34-61.32-30.61L352.76,110.6h2367.42c167.32,0,302.96,154.45,302.96,344.98Z"/>
  <g>
    <path class="cls-3" d="M45.43,429.56c0,88.07,33.91,167.81,88.73,225.53,54.83,57.72,130.57,93.42,214.23,93.42h1163.63V110.6H348.39c-167.32,0-302.96,142.8-302.96,318.96Z"/>
    <path class="cls-3" d="M2978.61,429.56c0,88.07-33.91,167.81-88.73,225.53-54.83,57.72-130.57,93.42-214.23,93.42h-1163.63V110.6h1163.63c167.32,0,302.96,142.8,302.96,318.96Z"/>
  </g>
  <g>
    <path class="cls-1" d="M1133.58,498.6c2.65-14.04,5.03-26.3,7.16-36.77,2.12-10.47,3.98-20.21,5.57-29.22,1.59-9.01,3.11-17.95,4.57-26.83,1.45-8.88,3.04-18.81,4.77-29.81,1.72-10.99,3.71-23.58,5.96-37.76,2.25-14.17,4.97-31.21,8.15-51.08.79-5.03,2.12-8.28,3.98-9.74,1.85-1.45,6.49-2.19,13.91-2.19,2.91,0,7.29.2,13.12.6,5.83.4,11.66,1.59,17.49,3.58,5.83,1.99,10.93,5.04,15.3,9.14,4.37,4.11,6.56,9.88,6.56,17.29,0,4.24-.79,10.8-2.38,19.68-1.59,8.88-3.78,19.08-6.56,30.61-2.78,11.53-5.96,24.05-9.54,37.56-3.58,13.52-7.22,27.17-10.93,40.94-3.71,13.78-7.49,27.17-11.33,40.15-3.84,12.99-7.42,24.71-10.73,35.18-3.32,10.47-6.3,19.28-8.94,26.43-2.65,7.16-4.51,11.79-5.57,13.91-1.59,2.92-3.84,4.91-6.76,5.96-2.92,1.06-5.83,1.59-8.75,1.59h-37.76c-6.89,0-12.66-1.32-17.29-3.98-4.64-2.65-8.48-6.09-11.53-10.33-3.05-4.24-5.44-9.01-7.16-14.31-1.73-5.3-2.85-10.73-3.38-16.3l-19.88-178.49c-1.59,11.66-3.38,24.78-5.37,39.35-1.99,14.58-4.11,29.42-6.36,44.52-2.25,15.11-4.44,29.95-6.56,44.52-2.12,14.58-4.24,27.89-6.36,39.95-2.12,12.06-4.11,22.33-5.96,30.81-1.86,8.48-3.45,14.05-4.77,16.7-1.33,2.92-3.45,4.91-6.36,5.96-2.92,1.06-5.96,1.59-9.14,1.59h-37.76c-6.63,0-12.12-1.25-16.5-3.78-4.37-2.52-8.02-5.89-10.93-10.14-2.92-4.24-5.3-9.07-7.16-14.51-1.86-5.43-3.45-10.93-4.77-16.5-10.87-43.19-19.68-78.71-26.43-106.54s-12.12-50.15-16.1-66.98c-3.97-16.83-6.7-29.15-8.15-36.97-1.46-7.81-2.19-13.45-2.19-16.89,0-4.5,1.39-7.42,4.17-8.75,2.78-1.32,8.68-1.99,17.69-1.99,11.13,0,20.47.79,28.02,2.39,7.55,1.59,13.71,4.04,18.49,7.35,4.77,3.32,8.41,7.69,10.93,13.12,2.52,5.43,4.17,11.99,4.97,19.68,0,1.06.13,2.58.4,4.57.26,1.99.6,5.24.99,9.74.4,4.51,1.06,10.67,1.99,18.48.93,7.82,2.12,18.22,3.58,31.21,1.45,12.99,3.31,29.09,5.57,48.3,2.25,19.22,4.97,42.21,8.15,68.97,2.91-16.16,5.23-29.22,6.96-39.16,1.72-9.94,3.24-18.68,4.57-26.24,1.32-7.55,2.51-14.84,3.58-21.86,1.06-7.02,2.32-15.76,3.78-26.24,1.45-10.47,3.18-23.65,5.17-39.55,1.99-15.9,4.57-36.57,7.75-62.01.26-1.85,1.39-3.31,3.38-4.37,1.99-1.06,4.44-1.85,7.35-2.38,2.91-.53,6.16-.86,9.74-.99,3.58-.13,6.96-.2,10.14-.2,10.6,0,19.61.6,27.03,1.79,7.42,1.19,13.58,3.25,18.48,6.16,4.9,2.92,8.81,6.83,11.73,11.73,2.91,4.91,5.3,10.93,7.16,18.09.79,3.45,1.72,8.15,2.78,14.11,1.06,5.96,2.32,15.44,3.78,28.42,1.45,12.99,3.31,30.81,5.56,53.47,2.25,22.66,5.23,52.41,8.94,89.24Z"/>
    <path class="cls-4" d="M1345.46,561.8c-11.67,0-23.25-1.46-34.78-4.37s-21.86-7.95-31.01-15.11c-9.14-7.16-16.63-16.7-22.46-28.62-5.83-11.93-8.75-26.89-8.75-44.92,0-6.62.53-14.57,1.59-23.85,1.06-9.27,3.11-18.81,6.16-28.62,3.04-9.8,7.29-19.54,12.72-29.22,5.43-9.67,12.52-18.35,21.27-26.04,8.75-7.68,19.34-13.91,31.8-18.68,12.45-4.77,27.29-7.16,44.52-7.16,13.78,0,25.44,1.59,34.98,4.77,9.54,3.18,17.22,7.49,23.06,12.92,5.83,5.43,10.07,11.73,12.72,18.88,2.65,7.16,3.97,14.84,3.97,23.06,0,12.19-2.45,22.53-7.35,31.01-4.91,8.48-11.27,15.57-19.08,21.27-7.82,5.7-16.5,10.14-26.04,13.32-9.54,3.18-18.95,5.63-28.22,7.35-9.28,1.73-17.83,2.78-25.64,3.18-7.82.4-13.85.6-18.09.6,0,5.04.73,10.01,2.19,14.91,1.45,4.91,3.64,9.21,6.56,12.92,2.91,3.71,6.76,6.76,11.53,9.14,4.77,2.38,10.6,3.58,17.49,3.58s12.25-1.12,16.1-3.38c3.84-2.25,6.96-4.77,9.34-7.55,2.38-2.78,4.43-5.3,6.16-7.55,1.72-2.25,4.04-3.38,6.96-3.38,1.32,0,3.64.34,6.96.99,3.31.66,6.69,2.06,10.14,4.17,3.44,2.12,6.49,5.04,9.14,8.75,2.65,3.71,3.98,8.48,3.98,14.31,0,7.69-2.39,14.31-7.16,19.88-4.77,5.57-10.93,10.08-18.48,13.52-7.55,3.45-15.97,5.96-25.24,7.55-9.28,1.59-18.29,2.39-27.03,2.39ZM1353.01,388.09c-5.83,0-10.8,1.66-14.91,4.97-4.11,3.32-7.55,7.49-10.34,12.52-2.78,5.04-4.91,10.6-6.36,16.7-1.46,6.1-2.58,11.92-3.38,17.49,16.43-.26,29.75-3.04,39.95-8.35,10.2-5.3,15.3-12.85,15.3-22.66,0-5.3-1.66-10.07-4.97-14.31-3.32-4.24-8.42-6.36-15.3-6.36Z"/>
    <path class="cls-8" d="M1556.14,561.8c-20.41,0-36.57-2.98-48.5-8.94-11.92-5.96-20.94-13.45-27.03-22.46-6.1-9.01-9.94-18.75-11.53-29.22-1.59-10.47-2.38-20.07-2.38-28.82,0-3.44.33-10.2.99-20.27.66-10.07,1.52-21.73,2.58-34.98,1.06-13.25,2.12-27.36,3.18-42.34,1.06-14.97,2.12-29.15,3.18-42.53,1.06-13.38,1.92-25.24,2.58-35.58.66-10.34.99-17.49.99-21.47,0-5.83.4-9.21,1.19-10.14.79-.92,3.18-1.39,7.16-1.39h15.5c7.95,0,14.57.93,19.88,2.78,5.3,1.86,9.54,4.37,12.72,7.55,3.18,3.18,5.43,6.83,6.76,10.93,1.32,4.11,1.99,8.55,1.99,13.32,0,4.51-.47,13.25-1.39,26.24-.93,12.99-2.06,28.22-3.38,45.71,6.89-11.93,14.71-20.73,23.45-26.43,8.75-5.7,20.27-8.55,34.58-8.55,24.11,0,42.6,7.95,55.45,23.85,12.85,15.9,19.28,39.62,19.28,71.16,0,8.22-.6,17.23-1.79,27.03-1.19,9.81-3.32,19.55-6.36,29.22-3.05,9.68-7.29,19.08-12.72,28.22-5.43,9.14-12.52,17.16-21.27,24.05-8.75,6.89-19.28,12.46-31.6,16.7-12.32,4.24-26.83,6.36-43.53,6.36ZM1574.03,388.09c-9.54,0-17.03,2.52-22.46,7.55-5.43,5.04-9.61,11.13-12.52,18.29-2.92,7.16-4.77,14.78-5.57,22.86-.79,8.09-1.19,15.17-1.19,21.27,0,18.29,2.52,31.34,7.55,39.16,5.03,7.82,12.58,11.73,22.66,11.73,9.54,0,17.03-2.98,22.46-8.94,5.43-5.96,9.54-13.05,12.32-21.27,2.78-8.21,4.57-16.56,5.37-25.04.79-8.48,1.19-15.11,1.19-19.88,0-14.84-2.25-26.17-6.76-33.99-4.51-7.81-12.19-11.73-23.06-11.73Z"/>
    <path class="cls-9" d="M1791.08,507.34c3.18-11.13,6.16-22.12,8.94-32.99,2.78-10.86,5.57-22.46,8.35-34.78,2.78-12.32,5.83-25.84,9.14-40.55,3.31-14.71,7.22-31.47,11.73-50.29.79-3.71,1.99-6.16,3.58-7.35,1.59-1.19,5.03-1.79,10.34-1.79,3.97,0,9.27.14,15.9.4,6.62.27,13.12,1.19,19.48,2.78s11.86,3.98,16.5,7.16c4.63,3.18,6.96,7.55,6.96,13.12,0,4.51-1.59,11.79-4.77,21.86-3.18,10.08-7.29,21.53-12.32,34.39-5.04,12.86-10.67,26.3-16.89,40.35-6.23,14.05-12.26,27.3-18.09,39.75-5.83,12.46-11.27,23.39-16.3,32.79-5.04,9.41-8.75,15.97-11.13,19.68-2.12,2.92-3.98,4.64-5.57,5.17-1.59.53-4.24.79-7.95.79h-35.38c-5.57,0-10.14-.99-13.71-2.98-3.58-1.99-6.56-4.57-8.94-7.75-2.39-3.18-4.37-6.82-5.96-10.93-1.59-4.11-3.05-8.41-4.37-12.92-7.69-26.5-14.38-49.22-20.07-68.17-5.7-18.94-10.53-34.78-14.51-47.5-3.97-12.72-7.16-22.86-9.54-30.41-2.39-7.55-4.24-13.38-5.57-17.49-1.33-4.11-2.25-6.89-2.78-8.35-.53-1.45-.79-2.45-.79-2.98.26-1.85,1.59-3.84,3.97-5.96,2.38-2.12,5.43-3.18,9.14-3.18,12.19,0,22.59.47,31.21,1.39,8.61.93,15.76,2.58,21.47,4.97,5.7,2.38,10.07,5.7,13.12,9.94,3.04,4.24,5.23,9.81,6.56,16.7.26,1.86.79,5.57,1.59,11.13s1.65,12.26,2.58,20.07c.93,7.82,2.05,16.44,3.38,25.84,1.32,9.41,2.58,18.82,3.78,28.22,1.19,9.41,2.38,18.48,3.58,27.23,1.19,8.75,2.32,16.3,3.38,22.66Z"/>
    <path class="cls-7" d="M1963.6,557.83c-8.22,0-14.91-.86-20.07-2.58-5.17-1.72-9.28-4.17-12.32-7.35-3.05-3.18-5.17-7.09-6.36-11.73-1.19-4.63-1.79-10-1.79-16.1,0-3.98.2-9.6.6-16.89.4-7.29,1.12-17.35,2.19-30.21,1.06-12.85,2.32-29.15,3.78-48.89,1.45-19.74,3.24-44.19,5.37-73.34.26-5.83.93-9.27,1.99-10.33.8-.79,2.91-1.19,6.36-1.19h15.5c8.21,0,14.91.79,20.07,2.38s9.27,3.98,12.32,7.16c3.04,3.18,5.17,7.02,6.36,11.53,1.19,4.51,1.79,9.54,1.79,15.11,0,3.97-.27,9.94-.79,17.89-.53,7.95-1.26,18.75-2.19,32.4-.93,13.65-2.19,30.61-3.78,50.88-1.59,20.27-3.58,44.72-5.96,73.34-.27,3.18-.93,5.3-1.99,6.36s-3.32,1.59-6.76,1.59h-14.31ZM1935.38,292.29c0-10.6,3.84-18.94,11.53-25.04,7.68-6.09,18.02-9.14,31.01-9.14,11.39,0,19.68,2.32,24.84,6.96,5.17,4.64,7.75,10.8,7.75,18.49,0,9.81-3.65,17.96-10.93,24.45-7.29,6.5-17.96,9.74-32,9.74-21.47,0-32.2-8.48-32.2-25.44Z"/>
    <path class="cls-10" d="M2126.18,561.8c-11.67,0-23.25-1.46-34.78-4.37s-21.86-7.95-31.01-15.11c-9.14-7.16-16.63-16.7-22.46-28.62-5.83-11.93-8.75-26.89-8.75-44.92,0-6.62.53-14.57,1.59-23.85,1.06-9.27,3.11-18.81,6.16-28.62,3.04-9.8,7.29-19.54,12.72-29.22,5.43-9.67,12.52-18.35,21.27-26.04,8.75-7.68,19.34-13.91,31.8-18.68,12.45-4.77,27.29-7.16,44.52-7.16,13.78,0,25.44,1.59,34.98,4.77,9.54,3.18,17.22,7.49,23.06,12.92,5.83,5.43,10.07,11.73,12.72,18.88,2.65,7.16,3.97,14.84,3.97,23.06,0,12.19-2.45,22.53-7.35,31.01-4.91,8.48-11.27,15.57-19.08,21.27-7.82,5.7-16.5,10.14-26.04,13.32-9.54,3.18-18.95,5.63-28.22,7.35-9.28,1.73-17.83,2.78-25.64,3.18-7.82.4-13.85.6-18.09.6,0,5.04.73,10.01,2.19,14.91,1.45,4.91,3.64,9.21,6.56,12.92,2.91,3.71,6.76,6.76,11.53,9.14,4.77,2.38,10.6,3.58,17.49,3.58s12.25-1.12,16.1-3.38c3.84-2.25,6.96-4.77,9.34-7.55,2.38-2.78,4.43-5.3,6.16-7.55,1.72-2.25,4.04-3.38,6.96-3.38,1.32,0,3.64.34,6.96.99,3.31.66,6.69,2.06,10.14,4.17,3.44,2.12,6.49,5.04,9.14,8.75,2.65,3.71,3.98,8.48,3.98,14.31,0,7.69-2.39,14.31-7.16,19.88-4.77,5.57-10.93,10.08-18.48,13.52-7.55,3.45-15.97,5.96-25.24,7.55-9.28,1.59-18.29,2.39-27.03,2.39ZM2133.73,388.09c-5.83,0-10.8,1.66-14.91,4.97-4.11,3.32-7.55,7.49-10.34,12.52-2.78,5.04-4.91,10.6-6.36,16.7-1.46,6.1-2.58,11.92-3.38,17.49,16.43-.26,29.75-3.04,39.95-8.35,10.2-5.3,15.3-12.85,15.3-22.66,0-5.3-1.66-10.07-4.97-14.31-3.32-4.24-8.42-6.36-15.3-6.36Z"/>
    <path class="cls-6" d="M2458.9,515.29c3.44-19.34,6.42-36.24,8.94-50.68,2.52-14.44,4.63-26.96,6.36-37.57,1.72-10.6,3.18-19.74,4.37-27.43,1.19-7.68,2.25-14.51,3.18-20.47.92-5.96,1.72-11.26,2.38-15.9.66-4.63,1.39-9.47,2.19-14.51.53-2.91,1.92-5.17,4.17-6.76,2.25-1.59,6.56-2.38,12.92-2.38,3.44,0,8.28.2,14.51.6,6.22.4,12.38,1.39,18.48,2.98,6.09,1.59,11.33,4.04,15.7,7.35,4.37,3.32,6.56,7.89,6.56,13.71,0,4.24-1.19,10.53-3.58,18.88-2.39,8.35-5.43,17.96-9.14,28.82-3.71,10.87-7.95,22.46-12.72,34.78-4.77,12.32-9.61,24.52-14.51,36.57-4.91,12.06-9.61,23.52-14.11,34.38-4.51,10.87-8.35,20.27-11.53,28.22-2.12,4.77-4.17,7.95-6.16,9.54-1.99,1.59-5.5,2.38-10.53,2.38h-23.45c-7.42,0-13.52-.93-18.29-2.78-4.77-1.85-8.61-4.37-11.53-7.55-2.92-3.18-5.17-6.82-6.76-10.93-1.59-4.11-2.78-8.55-3.58-13.32-2.65-13.52-5.43-31.67-8.35-54.46-2.92-22.79-5.57-49.69-7.95-80.7-1.33,5.83-2.85,13.65-4.57,23.45-1.73,9.81-3.58,20.41-5.57,31.8-1.99,11.4-4.04,23.06-6.16,34.98-2.12,11.92-4.11,22.99-5.96,33.19-1.86,10.21-3.58,18.95-5.17,26.24-1.59,7.29-2.92,11.99-3.98,14.11-1.33,2.65-2.98,4.31-4.97,4.97-1.99.67-4.84.99-8.55.99h-27.83c-6.89,0-12.79-.99-17.69-2.98-4.91-1.99-9.14-4.57-12.72-7.75-3.58-3.18-6.5-6.82-8.75-10.93-2.25-4.11-3.91-8.41-4.97-12.92-14.58-56.71-25.51-99.51-32.79-128.4-7.29-28.88-10.93-44.39-10.93-46.51,0-2.38,1.19-4.5,3.58-6.36,2.39-1.85,5.43-2.78,9.14-2.78,11.39,0,21.2.47,29.42,1.39,8.21.93,15.04,2.58,20.47,4.97,5.43,2.38,9.6,5.7,12.52,9.94,2.91,4.24,4.77,9.81,5.57,16.7.26,3.71.79,11.27,1.59,22.66.79,11.4,1.65,24.32,2.58,38.76.92,14.45,1.85,29.09,2.78,43.92.93,14.85,1.79,27.43,2.58,37.76,3.18-16.43,5.76-29.55,7.75-39.35,1.99-9.8,3.64-18.02,4.97-24.65,1.32-6.62,2.45-12.45,3.38-17.49.92-5.03,2.05-10.99,3.38-17.89,1.32-6.89,2.84-15.5,4.57-25.84,1.72-10.34,4.17-24.11,7.35-41.34,1.06-6.36,8.08-9.54,21.07-9.54,8.21,0,15.9.27,23.06.79,7.16.53,13.52,1.79,19.08,3.78,5.57,1.99,10.34,4.91,14.31,8.75,3.97,3.84,6.76,9.08,8.35,15.7.53,1.86.99,3.71,1.39,5.57.4,1.86.86,4.51,1.39,7.95.53,3.45,1.12,8.22,1.79,14.31.66,6.1,1.45,14.31,2.38,24.65.93,10.34,2.05,23.19,3.38,38.56,1.32,15.37,3.04,34.06,5.17,56.05Z"/>
  </g>
  <path class="cls-2" d="M359.37,201.78c-94.8,27.62-163.02,110.48-171.91,208.82h109.56c6.39-73.12,27.59-144.18,62.31-208.85l.03.03ZM297.02,453.4h-109.56c8.87,98.35,77.08,181.22,171.88,208.85-34.73-64.67-55.93-135.73-62.31-208.85M414.25,671.39c-41.51-65.84-66.96-140.51-74.3-218h172.39c-7.34,77.48-32.79,152.16-74.3,218-7.93.39-15.87.39-23.8,0M493,662.22c94.79-27.63,162.99-110.49,171.88-208.82h-109.56c-6.39,73.12-27.59,144.18-62.31,208.85v-.03ZM555.31,410.6h109.56c-8.87-98.35-77.08-181.22-171.88-208.85,34.73,64.67,55.93,135.73,62.31,208.85M414.25,192.61c7.94-.4,15.89-.4,23.83,0,41.5,65.84,66.94,140.51,74.26,218h-172.36c7.43-77.96,32.97-152.7,74.3-218h-.03Z"/>
</svg>